<?xml version="1.0" standalone="no"?>
<!DOCTYPE svg PUBLIC "-//W3C//DTD SVG 20010904//EN"
 "http://www.w3.org/TR/2001/REC-SVG-20010904/DTD/svg10.dtd">
<svg version="1.0" xmlns="http://www.w3.org/2000/svg"
 width="800.000000pt" height="800.000000pt" viewBox="200 200 400.000000 400.000000"
 preserveAspectRatio="xMidYMid meet">
<metadata>
Created by potrace 1.15, written by Peter Selinger 2001-2017
</metadata>
<g transform="translate(0.000000,800.000000) scale(0.100000,-0.100000)"
fill="#000000" stroke="none">
<path d="M2750 5198 c-10 -4 -21 -11 -24 -16 -3 -5 -6 -567 -6 -1248 -1 -1016
2 -1240 13 -1251 20 -20 2485 -20 2505 0 11 11 13 110 13 533 0 494 -1 520
-19 534 -15 12 -43 15 -131 13 -66 -1 -119 -7 -127 -13 -11 -10 -14 -83 -16
-382 l-3 -370 -24 -19 c-23 -19 -48 -19 -952 -17 -876 3 -929 4 -946 21 -17
17 -18 68 -18 952 0 884 1 935 18 952 16 17 47 18 384 20 311 2 369 5 382 17
21 22 21 241 -1 262 -13 13 -89 15 -522 17 -279 1 -515 -1 -526 -5z"/>
<path d="M4190 5198 c-10 -4 -20 -10 -23 -15 -3 -5 -7 -62 -8 -126 -2 -93 1
-121 13 -133 12 -12 72 -15 382 -17 l368 -2 19 -24 c19 -23 20 -41 18 -384 -1
-306 1 -362 14 -374 21 -21 243 -22 264 -1 21 21 21 1044 0 1065 -11 12 -106
15 -521 16 -279 1 -515 -1 -526 -5z"/>
<path d="M3310 4638 c-10 -4 -21 -11 -24 -17 -3 -5 -7 -116 -7 -246 -1 -199 1
-240 14 -252 12 -12 41 -15 133 -15 148 1 149 2 149 117 0 113 7 119 123 122
117 2 119 5 116 154 -3 81 -7 117 -18 127 -11 11 -59 14 -240 16 -125 0 -235
-2 -246 -6z"/>
<path d="M4190 4638 c-10 -4 -20 -10 -23 -15 -3 -5 -7 -62 -8 -126 -3 -148 -3
-148 116 -150 80 -2 88 -4 107 -27 17 -21 20 -35 16 -98 -7 -110 -2 -115 147
-114 91 1 122 4 133 16 21 21 20 482 -2 504 -11 11 -61 14 -240 15 -125 1
-235 -1 -246 -5z"/>
<path d="M3310 3758 c-10 -4 -20 -11 -23 -15 -3 -5 -7 -116 -8 -247 -1 -198 1
-240 13 -252 12 -13 57 -15 254 -15 292 0 272 -12 268 152 -3 83 -7 117 -18
127 -11 11 -39 16 -100 16 -114 1 -121 8 -122 122 -1 114 -3 117 -139 118 -58
1 -114 -2 -125 -6z"/>
<path d="M4426 3755 c-18 -9 -22 -22 -26 -104 -7 -122 -18 -133 -132 -130 -58
2 -82 -1 -93 -12 -21 -21 -24 -244 -3 -265 22 -22 484 -22 506 0 21 21 20 482
-2 504 -18 18 -217 23 -250 7z"/>
</g>
</svg>
