<svg id="svg" version="1.1" xmlns="http://www.w3.org/2000/svg" xmlns:xlink="http://www.w3.org/1999/xlink" viewBox="0, 0, 400,237.33333333333334"><g id="svgg"><path id="path0" d="M291.599 116.202 C 291.515 116.421,291.154 116.558,290.657 116.558 C 290.128 116.558,289.852 116.671,289.852 116.888 C 289.852 117.077,289.494 117.284,289.008 117.375 C 288.544 117.462,288.106 117.688,288.033 117.877 C 287.961 118.065,287.729 118.220,287.518 118.220 C 287.068 118.220,283.917 121.473,283.917 121.938 C 283.917 122.113,283.810 122.255,283.680 122.255 C 283.549 122.255,283.442 122.400,283.442 122.576 C 283.442 122.752,283.175 123.399,282.849 124.013 C 282.449 124.765,282.255 125.508,282.255 126.289 C 282.255 126.928,282.148 127.516,282.018 127.596 C 281.887 127.677,281.780 128.211,281.780 128.783 C 281.780 129.356,281.887 129.890,282.018 129.970 C 282.148 130.051,282.255 130.602,282.255 131.195 C 282.255 134.516,287.060 140.258,290.199 140.688 C 290.776 140.768,291.305 140.979,291.373 141.158 C 291.558 141.638,298.218 141.629,298.700 141.148 C 298.884 140.963,299.542 140.736,300.160 140.643 C 300.778 140.550,301.340 140.328,301.409 140.148 C 301.478 139.969,301.638 139.822,301.764 139.822 C 302.156 139.822,304.519 137.868,304.830 137.287 C 304.992 136.984,305.214 136.736,305.322 136.736 C 305.431 136.736,305.519 136.572,305.519 136.372 C 305.519 136.172,305.680 135.947,305.875 135.872 C 306.071 135.797,306.231 135.587,306.231 135.405 C 306.231 135.223,306.338 135.074,306.469 135.074 C 306.599 135.074,306.706 134.874,306.706 134.628 C 306.706 134.383,306.866 134.050,307.062 133.887 C 307.258 133.725,307.418 133.291,307.418 132.923 C 307.418 132.555,307.525 132.188,307.656 132.107 C 307.796 132.020,307.893 130.601,307.893 128.651 C 307.893 126.603,307.803 125.341,307.656 125.341 C 307.525 125.341,307.418 125.034,307.418 124.658 C 307.418 124.282,307.258 123.842,307.062 123.680 C 306.866 123.517,306.706 123.199,306.706 122.973 C 306.706 122.747,306.442 122.277,306.119 121.928 C 305.796 121.580,305.555 121.268,305.585 121.235 C 305.718 121.086,303.690 118.932,303.416 118.932 C 303.295 118.932,303.135 118.772,303.060 118.576 C 302.984 118.380,302.803 118.220,302.656 118.220 C 302.509 118.220,302.118 118.006,301.786 117.745 C 301.454 117.484,300.980 117.270,300.732 117.270 C 300.484 117.270,300.220 117.110,300.145 116.914 C 300.062 116.697,299.703 116.558,299.228 116.558 C 298.754 116.558,298.395 116.418,298.312 116.202 C 298.200 115.909,297.598 115.846,294.955 115.846 C 292.313 115.846,291.711 115.909,291.599 116.202 " stroke="none" fill="#3cb4e4" fill-rule="evenodd"></path><path id="path1" d="M100.568 64.926 C 100.372 65.122,100.016 65.282,99.776 65.282 C 99.316 65.282,97.694 66.075,97.092 66.595 C 95.579 67.901,94.488 69.005,94.485 69.233 C 94.482 69.382,94.341 69.558,94.171 69.623 C 94.001 69.688,93.710 70.207,93.525 70.776 C 93.341 71.345,93.053 71.951,92.886 72.124 C 92.718 72.296,92.582 72.744,92.582 73.119 C 92.582 73.493,92.476 73.865,92.347 73.945 C 91.991 74.165,92.019 162.599,92.375 163.483 C 92.523 163.852,92.627 164.501,92.606 164.926 C 92.580 165.440,92.675 165.697,92.892 165.697 C 93.071 165.697,93.363 166.136,93.539 166.672 C 93.716 167.208,94.001 167.700,94.171 167.766 C 94.341 167.831,94.481 168.025,94.481 168.196 C 94.481 168.367,94.565 168.542,94.669 168.586 C 94.772 168.629,95.158 169.065,95.528 169.555 C 95.897 170.045,96.350 170.445,96.534 170.445 C 96.719 170.445,96.927 170.596,96.998 170.780 C 97.069 170.964,97.386 171.180,97.703 171.259 C 98.020 171.339,98.279 171.508,98.279 171.637 C 98.279 171.765,98.493 171.869,98.754 171.869 C 99.015 171.869,99.228 171.950,99.228 172.049 C 99.228 172.905,106.176 173.143,107.831 172.344 C 108.371 172.083,108.957 171.869,109.132 171.869 C 109.308 171.869,109.513 171.709,109.588 171.513 C 109.663 171.318,109.815 171.157,109.926 171.157 C 110.210 171.157,111.680 170.138,111.808 169.852 C 111.867 169.721,112.212 169.364,112.575 169.059 C 112.937 168.754,113.234 168.369,113.234 168.203 C 113.234 168.038,113.503 167.613,113.832 167.259 C 114.160 166.904,114.377 166.530,114.314 166.428 C 114.251 166.326,114.353 166.039,114.540 165.792 C 114.728 165.544,114.884 165.015,114.889 164.617 C 114.893 164.219,115.030 163.760,115.193 163.597 C 115.415 163.375,115.509 161.327,115.566 155.447 L 115.643 147.593 117.228 146.093 C 118.100 145.268,118.981 144.454,119.185 144.285 C 119.390 144.115,119.774 143.788,120.039 143.557 C 120.508 143.149,120.537 143.165,121.198 144.210 C 121.570 144.800,121.961 145.282,122.065 145.282 C 122.170 145.282,122.255 145.388,122.255 145.517 C 122.255 145.646,122.409 145.939,122.597 146.169 C 122.784 146.399,123.319 147.068,123.785 147.656 C 124.251 148.243,124.739 148.853,124.868 149.011 C 124.998 149.168,125.104 149.360,125.104 149.438 C 125.104 149.515,125.371 149.825,125.697 150.128 C 126.024 150.430,126.291 150.773,126.291 150.890 C 126.291 151.007,126.585 151.420,126.944 151.807 C 127.303 152.194,127.590 152.567,127.583 152.635 C 127.576 152.704,127.661 152.866,127.773 152.997 C 128.387 153.713,130.084 156.109,130.087 156.261 C 130.088 156.359,130.223 156.439,130.387 156.439 C 130.551 156.439,130.822 156.748,130.989 157.126 C 131.157 157.504,131.557 158.097,131.878 158.444 C 132.200 158.791,132.463 159.127,132.463 159.191 C 132.463 159.255,132.574 159.437,132.710 159.595 C 133.002 159.934,135.462 163.218,136.142 164.177 C 136.404 164.545,136.804 165.037,137.033 165.272 C 137.261 165.506,137.448 165.804,137.448 165.935 C 137.448 166.065,137.555 166.172,137.685 166.172 C 137.816 166.172,137.923 166.307,137.923 166.471 C 137.923 166.636,138.190 167.058,138.516 167.410 C 138.843 167.762,139.110 168.132,139.110 168.231 C 139.110 168.511,142.034 171.157,142.344 171.157 C 142.496 171.157,142.681 171.318,142.756 171.513 C 142.832 171.709,143.037 171.869,143.212 171.869 C 143.387 171.869,143.985 172.089,144.540 172.357 C 145.954 173.040,153.353 172.829,153.353 172.106 C 153.353 172.004,153.620 171.854,153.947 171.772 C 154.273 171.690,154.540 171.518,154.540 171.390 C 154.540 171.262,154.704 171.157,154.904 171.157 C 155.104 171.157,155.329 170.997,155.404 170.801 C 155.479 170.605,155.668 170.445,155.823 170.445 C 156.058 170.445,157.198 169.280,158.220 167.995 C 158.672 167.426,159.050 166.652,159.050 166.294 C 159.050 166.096,159.157 165.935,159.288 165.935 C 159.418 165.935,159.525 165.688,159.525 165.387 C 159.525 165.085,159.682 164.631,159.874 164.378 C 160.381 163.707,160.387 158.454,159.881 157.948 C 159.685 157.752,159.525 157.333,159.525 157.016 C 159.525 156.699,159.418 156.439,159.288 156.439 C 159.157 156.439,159.050 156.172,159.050 155.846 C 159.050 155.519,158.944 155.252,158.813 155.252 C 158.682 155.252,158.576 155.087,158.576 154.886 C 158.576 154.685,158.470 154.391,158.342 154.233 C 157.231 152.871,156.914 152.418,156.914 152.191 C 156.914 152.047,156.804 151.929,156.669 151.929 C 156.534 151.929,156.354 151.747,156.269 151.524 C 156.110 151.109,155.668 150.511,154.985 149.786 C 154.773 149.561,154.559 149.272,154.510 149.144 C 154.413 148.888,152.625 146.467,151.030 144.431 C 150.471 143.717,149.893 142.868,149.746 142.545 C 149.599 142.223,149.400 141.958,149.304 141.958 C 149.208 141.958,148.787 141.424,148.368 140.772 C 147.949 140.119,147.523 139.585,147.421 139.585 C 147.319 139.585,147.053 139.201,146.831 138.733 C 146.608 138.264,146.248 137.702,146.029 137.483 C 145.810 137.264,145.368 136.713,145.045 136.258 C 144.722 135.803,144.216 135.204,143.921 134.928 C 143.625 134.652,143.383 134.252,143.383 134.038 C 143.383 133.825,143.276 133.650,143.145 133.650 C 143.015 133.650,142.908 133.490,142.908 133.294 C 142.908 133.098,142.748 132.938,142.552 132.938 C 142.356 132.938,142.196 132.777,142.196 132.582 C 142.196 132.386,142.106 132.226,141.997 132.226 C 141.887 132.226,141.686 131.982,141.551 131.685 C 141.416 131.388,141.081 130.880,140.809 130.557 C 140.035 129.643,138.635 127.725,138.635 127.582 C 138.635 127.370,145.341 120.831,145.558 120.831 C 145.667 120.831,145.757 120.734,145.757 120.616 C 145.757 120.498,147.160 119.029,148.876 117.352 C 150.591 115.675,152.167 114.100,152.377 113.853 C 152.588 113.606,153.053 113.058,153.412 112.635 C 153.772 112.212,154.065 111.693,154.065 111.482 C 154.065 111.271,154.172 111.098,154.303 111.098 C 154.433 111.098,154.540 110.930,154.540 110.725 C 154.540 110.520,154.700 110.192,154.896 109.996 C 155.092 109.800,155.252 109.434,155.252 109.182 C 155.252 108.930,155.359 108.724,155.490 108.724 C 155.636 108.724,155.727 107.502,155.727 105.533 C 155.727 103.662,155.629 102.282,155.490 102.196 C 155.359 102.115,155.252 101.735,155.252 101.351 C 155.252 100.967,155.153 100.653,155.031 100.653 C 154.909 100.653,154.736 100.412,154.646 100.119 C 154.439 99.443,152.919 97.277,152.463 97.007 C 152.273 96.896,151.945 96.602,151.733 96.355 C 151.522 96.107,151.223 95.905,151.071 95.905 C 150.918 95.905,150.735 95.755,150.665 95.571 C 150.594 95.388,150.216 95.167,149.825 95.081 C 149.433 94.995,148.986 94.772,148.830 94.584 C 148.674 94.397,148.339 94.243,148.085 94.243 C 147.830 94.243,147.462 94.083,147.266 93.887 C 146.989 93.610,146.277 93.531,144.061 93.531 C 141.845 93.531,141.133 93.610,140.856 93.887 C 140.660 94.083,140.248 94.243,139.941 94.243 C 139.633 94.243,139.217 94.407,139.017 94.608 C 138.816 94.808,138.621 94.972,138.584 94.971 C 138.170 94.960,137.454 95.310,137.353 95.572 C 137.283 95.755,137.062 95.905,136.862 95.905 C 136.662 95.905,136.499 96.065,136.499 96.261 C 136.499 96.457,136.378 96.617,136.230 96.617 C 136.082 96.617,134.627 97.953,132.996 99.585 C 131.365 101.217,129.937 102.552,129.822 102.552 C 129.708 102.552,129.614 102.645,129.614 102.760 C 129.614 102.975,127.563 105.024,123.718 108.651 C 122.499 109.801,120.338 111.890,118.916 113.294 C 117.493 114.697,116.284 115.846,116.228 115.846 C 115.908 115.846,115.786 111.097,115.646 93.195 C 115.523 77.581,115.425 73.252,115.193 73.175 C 115.030 73.121,114.896 72.778,114.896 72.413 C 114.896 72.048,114.733 71.614,114.534 71.449 C 114.335 71.284,114.224 71.098,114.287 71.035 C 114.349 70.972,114.138 70.577,113.818 70.156 C 113.497 69.735,113.234 69.279,113.234 69.142 C 113.234 69.006,113.074 68.832,112.878 68.757 C 112.682 68.682,112.522 68.457,112.522 68.257 C 112.522 68.057,112.420 67.893,112.296 67.893 C 112.171 67.893,111.809 67.653,111.492 67.359 C 110.058 66.033,109.247 65.527,108.325 65.385 C 107.778 65.301,107.274 65.084,107.204 64.901 C 107.013 64.402,101.070 64.424,100.568 64.926 M218.969 64.898 C 218.900 65.078,218.421 65.293,217.905 65.376 C 217.389 65.458,216.771 65.711,216.531 65.938 C 216.292 66.165,215.786 66.564,215.407 66.825 C 214.505 67.447,212.938 68.953,212.938 69.199 C 212.938 69.305,212.671 69.742,212.344 70.169 C 212.018 70.597,211.751 71.109,211.751 71.305 C 211.751 71.502,211.644 71.729,211.513 71.810 C 211.383 71.891,211.276 72.315,211.276 72.754 C 211.276 73.192,211.142 73.595,210.979 73.650 C 210.554 73.791,210.542 163.491,210.966 163.754 C 211.123 163.850,211.277 164.380,211.310 164.932 C 211.342 165.483,211.443 165.935,211.534 165.935 C 211.625 165.935,211.766 166.202,211.848 166.528 C 211.930 166.855,212.102 167.122,212.230 167.122 C 212.358 167.122,212.463 167.282,212.463 167.478 C 212.463 167.674,212.570 167.834,212.700 167.834 C 212.831 167.834,212.938 167.977,212.938 168.153 C 212.938 168.546,214.823 170.445,215.214 170.445 C 215.370 170.445,215.560 170.605,215.635 170.801 C 215.710 170.997,215.935 171.157,216.135 171.157 C 216.335 171.157,216.499 171.256,216.499 171.377 C 216.499 171.658,217.862 172.344,218.420 172.344 C 218.653 172.344,218.910 172.451,218.991 172.582 C 219.077 172.721,220.453 172.819,222.315 172.819 C 224.176 172.819,225.552 172.721,225.638 172.582 C 225.719 172.451,226.039 172.344,226.350 172.344 C 226.661 172.344,226.982 172.237,227.062 172.107 C 227.143 171.976,227.416 171.869,227.670 171.869 C 227.923 171.869,228.131 171.709,228.131 171.513 C 228.131 171.318,228.294 171.157,228.494 171.157 C 228.694 171.157,228.919 170.997,228.994 170.801 C 229.069 170.605,229.260 170.445,229.419 170.445 C 229.790 170.445,231.001 169.324,231.519 168.502 C 232.359 167.166,232.878 166.146,232.878 165.829 C 232.878 165.648,232.989 165.463,233.125 165.417 C 233.782 165.198,234.065 162.009,234.065 154.831 L 234.065 147.644 235.176 146.641 C 235.788 146.089,236.533 145.371,236.833 145.045 C 237.392 144.436,237.459 144.371,238.315 143.596 C 238.900 143.067,239.288 143.015,239.288 143.467 C 239.288 143.644,239.540 144.061,239.849 144.394 C 240.158 144.727,241.037 145.891,241.804 146.980 C 242.570 148.070,243.439 149.187,243.735 149.463 C 244.031 149.740,244.273 150.067,244.273 150.192 C 244.273 150.316,244.647 150.838,245.104 151.352 C 245.561 151.865,245.934 152.349,245.935 152.427 C 245.935 152.505,246.122 152.786,246.350 153.051 C 246.914 153.707,249.037 156.582,249.577 157.421 C 249.817 157.795,250.111 158.101,250.230 158.101 C 250.348 158.101,250.445 158.261,250.445 158.457 C 250.445 158.653,250.552 158.813,250.682 158.813 C 250.813 158.813,250.920 158.977,250.920 159.177 C 250.920 159.377,251.080 159.602,251.276 159.677 C 251.472 159.752,251.632 159.962,251.632 160.144 C 251.632 160.326,251.722 160.475,251.832 160.475 C 251.942 160.475,252.233 160.849,252.480 161.306 C 252.726 161.763,253.003 162.136,253.097 162.136 C 253.190 162.136,253.513 162.547,253.814 163.049 C 254.116 163.551,254.709 164.379,255.132 164.889 C 256.691 166.765,257.092 167.315,257.092 167.573 C 257.092 167.978,260.305 171.157,260.715 171.157 C 260.914 171.157,261.138 171.318,261.213 171.513 C 261.289 171.709,261.567 171.869,261.832 171.869 C 262.098 171.869,262.315 171.964,262.315 172.080 C 262.315 172.824,269.521 173.055,271.003 172.358 C 271.575 172.089,272.192 171.869,272.376 171.869 C 272.559 171.869,272.770 171.709,272.845 171.513 C 272.921 171.318,273.131 171.157,273.312 171.157 C 273.767 171.157,276.470 168.544,276.656 167.924 C 276.739 167.648,277.018 167.231,277.276 166.997 C 277.534 166.764,277.745 166.383,277.745 166.149 C 277.745 165.916,277.852 165.659,277.982 165.579 C 278.113 165.498,278.220 165.193,278.220 164.900 C 278.220 164.607,278.352 164.235,278.514 164.073 C 278.930 163.658,278.931 158.536,278.516 158.398 C 278.353 158.343,278.220 157.934,278.220 157.488 C 278.220 157.042,278.113 156.677,277.982 156.677 C 277.852 156.677,277.745 156.415,277.745 156.095 C 277.745 155.775,277.606 155.428,277.435 155.323 C 277.265 155.219,276.952 154.760,276.739 154.303 C 276.526 153.846,276.158 153.258,275.921 152.997 C 275.154 152.152,274.184 150.780,274.184 150.540 C 274.184 150.412,274.104 150.271,274.006 150.227 C 273.790 150.132,272.522 148.455,272.522 148.265 C 272.522 148.191,272.360 147.944,272.162 147.715 C 270.552 145.856,269.674 144.765,269.673 144.621 C 269.673 144.528,269.353 144.077,268.961 143.620 C 268.570 143.163,268.250 142.652,268.250 142.485 C 268.250 142.318,268.089 142.119,267.893 142.044 C 267.697 141.969,267.537 141.768,267.537 141.597 C 267.537 141.426,267.457 141.250,267.359 141.207 C 267.057 141.072,265.401 138.926,265.401 138.668 C 265.401 138.534,265.214 138.285,264.985 138.114 C 264.538 137.780,263.027 135.701,263.027 135.419 C 263.027 135.325,262.781 135.022,262.482 134.746 C 262.182 134.469,261.633 133.789,261.262 133.234 C 260.892 132.680,260.496 132.226,260.383 132.226 C 260.270 132.226,260.178 132.065,260.178 131.869 C 260.178 131.674,260.096 131.513,259.995 131.513 C 259.894 131.513,259.610 131.139,259.364 130.682 C 259.118 130.226,258.826 129.852,258.716 129.852 C 258.606 129.852,258.516 129.746,258.516 129.617 C 258.516 129.393,258.060 128.767,257.365 128.038 C 257.096 127.756,257.096 127.637,257.365 127.299 C 258.045 126.443,260.445 124.154,260.662 124.154 C 260.787 124.154,260.890 124.056,260.890 123.936 C 260.890 123.651,263.710 120.831,263.995 120.831 C 264.115 120.831,264.214 120.678,264.214 120.491 C 264.214 120.304,264.425 120.084,264.684 120.002 C 264.942 119.920,265.339 119.538,265.566 119.155 C 265.792 118.771,266.066 118.457,266.175 118.457 C 266.458 118.457,267.537 117.338,267.537 117.043 C 267.537 116.907,267.619 116.795,267.720 116.795 C 268.696 116.795,273.709 110.458,273.709 109.224 C 273.709 109.007,273.864 108.609,274.053 108.339 C 274.483 107.725,274.442 103.179,274.000 102.389 C 273.840 102.104,273.709 101.597,273.709 101.262 C 273.709 100.927,273.602 100.653,273.472 100.653 C 273.341 100.653,273.234 100.496,273.234 100.304 C 273.234 99.611,270.930 96.617,270.397 96.617 C 270.260 96.617,270.148 96.457,270.148 96.261 C 270.148 96.065,270.001 95.905,269.821 95.905 C 269.641 95.905,269.362 95.746,269.201 95.552 C 269.040 95.357,268.813 95.257,268.697 95.328 C 268.581 95.400,268.487 95.347,268.487 95.210 C 268.487 94.927,266.976 94.243,266.350 94.243 C 266.121 94.243,265.801 94.083,265.638 93.887 C 265.243 93.411,259.596 93.362,259.300 93.832 C 259.195 93.997,258.576 94.271,257.923 94.439 C 257.270 94.607,256.700 94.846,256.657 94.969 C 256.613 95.092,256.438 95.193,256.267 95.193 C 256.096 95.193,255.894 95.353,255.819 95.549 C 255.744 95.745,255.519 95.905,255.319 95.905 C 255.119 95.905,254.955 96.048,254.955 96.223 C 254.955 96.398,254.688 96.663,254.362 96.811 C 254.036 96.960,253.769 97.171,253.769 97.280 C 253.769 97.508,253.706 97.571,250.206 100.890 C 248.761 102.261,246.074 104.852,244.237 106.647 C 242.399 108.442,240.873 109.911,240.846 109.911 C 240.690 109.911,237.151 113.590,237.151 113.751 C 237.151 113.859,237.056 113.947,236.939 113.947 C 236.823 113.947,236.129 114.555,235.396 115.299 L 234.065 116.652 234.065 95.553 C 234.065 80.514,233.988 74.212,233.797 73.607 C 232.791 70.433,230.498 66.979,229.377 66.951 C 229.214 66.947,229.080 66.783,229.080 66.588 C 229.080 66.390,228.869 66.231,228.605 66.231 C 228.344 66.231,228.131 66.142,228.131 66.032 C 228.131 65.775,227.050 65.282,226.487 65.282 C 226.248 65.282,225.919 65.122,225.757 64.926 C 225.341 64.425,219.160 64.399,218.969 64.898 M180.976 93.887 C 180.901 94.083,180.641 94.243,180.398 94.243 C 179.912 94.243,177.732 95.384,177.606 95.704 C 177.563 95.814,177.436 95.905,177.325 95.905 C 176.977 95.905,174.955 97.860,174.955 98.197 C 174.955 98.373,174.849 98.516,174.718 98.516 C 174.588 98.516,174.481 98.680,174.481 98.880 C 174.481 99.080,174.320 99.305,174.125 99.380 C 173.929 99.455,173.769 99.772,173.769 100.085 C 173.769 100.397,173.662 100.653,173.531 100.653 C 173.401 100.653,173.294 100.899,173.294 101.201 C 173.294 101.502,173.136 101.956,172.944 102.210 C 172.419 102.903,172.422 163.678,172.947 164.378 C 173.138 164.631,173.294 165.139,173.294 165.505 C 173.294 165.872,173.401 166.172,173.531 166.172 C 173.662 166.172,173.769 166.374,173.769 166.621 C 173.769 166.869,173.929 167.132,174.125 167.208 C 174.320 167.283,174.481 167.454,174.481 167.587 C 174.481 167.880,175.298 168.876,176.226 169.715 C 176.598 170.051,177.087 170.495,177.312 170.701 C 177.537 170.906,177.901 171.143,178.119 171.227 C 178.338 171.311,178.516 171.490,178.516 171.625 C 178.516 171.759,178.712 171.869,178.952 171.869 C 179.191 171.869,179.460 171.943,179.549 172.032 C 180.257 172.740,187.264 173.215,187.656 172.582 C 187.736 172.451,187.993 172.344,188.227 172.344 C 188.785 172.344,190.148 171.658,190.148 171.377 C 190.148 171.256,190.362 171.157,190.623 171.157 C 190.887 171.157,191.098 170.999,191.098 170.801 C 191.098 170.605,191.247 170.445,191.430 170.445 C 192.267 170.445,195.368 166.179,195.372 165.023 C 195.373 164.806,195.532 164.326,195.725 163.956 C 196.140 163.161,196.279 102.552,195.866 102.552 C 195.745 102.552,195.575 102.230,195.489 101.837 C 195.132 100.211,192.774 96.617,192.064 96.617 C 191.925 96.617,191.810 96.457,191.810 96.261 C 191.810 96.065,191.650 95.905,191.454 95.905 C 191.258 95.905,191.098 95.808,191.098 95.689 C 191.098 95.417,188.770 94.243,188.232 94.243 C 188.012 94.243,187.700 94.083,187.537 93.887 C 187.302 93.604,186.611 93.531,184.177 93.531 C 181.672 93.531,181.088 93.596,180.976 93.887 " stroke="none" fill="#84bc24" fill-rule="evenodd"></path></g></svg>