<svg id="svg" version="1.1" xmlns="http://www.w3.org/2000/svg" xmlns:xlink="http://www.w3.org/1999/xlink" width="400" height="400" viewBox="0, 0, 400,400"><g id="svgg"><path id="path0" d="M185.830 29.599 C 83.612 37.597,13.975 133.427,38.659 232.125 C 64.835 336.788,185.399 387.902,278.400 333.765 C 288.833 327.692,290.069 327.225,293.724 327.984 C 295.202 328.291,305.610 333.249,325.235 342.996 C 356.503 358.524,358.850 359.524,360.718 358.111 C 363.428 356.062,363.412 356.019,347.203 322.400 C 328.844 284.320,329.816 288.405,336.444 277.200 C 347.125 259.144,353.912 241.444,357.403 222.545 C 361.492 200.404,360.754 174.759,355.401 153.000 C 336.678 76.892,263.356 23.533,185.830 29.599 M205.258 96.412 C 249.036 100.761,283.617 132.101,291.751 174.800 C 295.890 196.526,290.285 229.717,282.095 231.978 C 279.412 232.719,277.723 231.979,244.184 215.365 C 203.886 195.402,204.612 195.687,203.242 199.289 C 202.322 201.708,201.676 200.211,220.993 240.400 C 238.415 276.648,237.845 275.231,236.238 278.320 C 233.004 284.536,207.894 290.010,189.800 288.445 C 112.012 281.714,73.461 192.861,121.922 132.000 C 137.181 112.837,161.032 99.581,185.200 96.832 C 187.290 96.594,189.540 96.337,190.200 96.260 C 192.925 95.942,201.392 96.027,205.258 96.412 " stroke="none" fill="#fcb33c" fill-rule="evenodd"></path></g></svg>