<svg width="722" height="337" viewBox="0 0 722 337" fill="none" xmlns="http://www.w3.org/2000/svg">
<path d="M0 21C0 16.0294 4.02944 12 9 12H251C255.971 12 260 16.0294 260 21V317C260 321.971 255.971 326 251 326H9C4.02944 326 0 321.971 0 317V21Z" fill="#E6E0E0"/>
<path d="M444 9C444 4.02943 448.029 0 453 0H713C717.971 0 722 4.02944 722 9V328C722 332.971 717.971 337 713 337H453C448.029 337 444 332.971 444 328V9Z" fill="#4A4A4A"/>
<path d="M18 288C18 283.582 21.5817 280 26 280H106C110.418 280 114 283.582 114 288C114 292.418 110.418 296 106 296H26C21.5817 296 18 292.418 18 288Z" fill="#C5C5C5"/>
<path d="M18 288C18 283.582 21.5817 280 26 280H106C110.418 280 114 283.582 114 288C114 292.418 110.418 296 106 296H26C21.5817 296 18 292.418 18 288Z" fill="#C5C5C5"/>
<path d="M18 254C18 250.134 21.134 247 25 247H107C110.866 247 114 250.134 114 254C114 257.866 110.866 261 107 261H25C21.134 261 18 257.866 18 254Z" fill="#C5C5C5"/>
<path d="M18 254C18 250.134 21.134 247 25 247H107C110.866 247 114 250.134 114 254C114 257.866 110.866 261 107 261H25C21.134 261 18 257.866 18 254Z" fill="#C5C5C5"/>
<path d="M145 254C145 250.134 148.134 247 152 247H232C235.866 247 239 250.134 239 254C239 257.866 235.866 261 232 261H152C148.134 261 145 257.866 145 254Z" fill="#C5C5C5"/>
<path d="M145 254C145 250.134 148.134 247 152 247H232C235.866 247 239 250.134 239 254C239 257.866 235.866 261 232 261H152C148.134 261 145 257.866 145 254Z" fill="#C5C5C5"/>
<path d="M18 219C18 214.582 21.5817 211 26 211H106C110.418 211 114 214.582 114 219C114 223.418 110.418 227 106 227H26C21.5817 227 18 223.418 18 219Z" fill="#C5C5C5"/>
<path d="M18 219C18 214.582 21.5817 211 26 211H106C110.418 211 114 214.582 114 219C114 223.418 110.418 227 106 227H26C21.5817 227 18 223.418 18 219Z" fill="#C5C5C5"/>
<path d="M55 54.5C55 49.2533 59.2533 45 64.5 45H195.5C200.747 45 205 49.2533 205 54.5C205 59.7467 200.747 64 195.5 64H64.5C59.2533 64 55 59.7467 55 54.5Z" fill="#C5C5C5"/>
<path d="M55 54.5C55 49.2533 59.2533 45 64.5 45H195.5C200.747 45 205 49.2533 205 54.5C205 59.7467 200.747 64 195.5 64H64.5C59.2533 64 55 59.7467 55 54.5Z" fill="#A9A9A9"/>
<path d="M29 178.5C29 173.806 32.8056 170 37.5 170H93.5C98.1944 170 102 173.806 102 178.5C102 183.194 98.1944 187 93.5 187H37.5C32.8056 187 29 183.194 29 178.5Z" fill="#C5C5C5"/>
<path d="M29 178.5C29 173.806 32.8056 170 37.5 170H93.5C98.1944 170 102 173.806 102 178.5C102 183.194 98.1944 187 93.5 187H37.5C32.8056 187 29 183.194 29 178.5Z" fill="#C5C5C5"/>
<path d="M29 147C29 142.582 32.5817 139 37 139H94C98.4183 139 102 142.582 102 147C102 151.418 98.4183 155 94 155H37C32.5817 155 29 151.418 29 147Z" fill="#C5C5C5"/>
<path d="M29 147C29 142.582 32.5817 139 37 139H94C98.4183 139 102 142.582 102 147C102 151.418 98.4183 155 94 155H37C32.5817 155 29 151.418 29 147Z" fill="#C5C5C5"/>
<path d="M29 114.5C29 109.806 32.8056 106 37.5 106H93.5C98.1944 106 102 109.806 102 114.5C102 119.194 98.1944 123 93.5 123H37.5C32.8056 123 29 119.194 29 114.5Z" fill="#C5C5C5"/>
<path d="M29 114.5C29 109.806 32.8056 106 37.5 106H93.5C98.1944 106 102 109.806 102 114.5C102 119.194 98.1944 123 93.5 123H37.5C32.8056 123 29 119.194 29 114.5Z" fill="#C5C5C5"/>
<path d="M145 219C145 214.582 148.582 211 153 211H231C235.418 211 239 214.582 239 219C239 223.418 235.418 227 231 227H153C148.582 227 145 223.418 145 219Z" fill="#C5C5C5"/>
<path d="M145 219C145 214.582 148.582 211 153 211H231C235.418 211 239 214.582 239 219C239 223.418 235.418 227 231 227H153C148.582 227 145 223.418 145 219Z" fill="#C5C5C5"/>
<path d="M145 287C145 282.029 149.029 278 154 278H230C234.971 278 239 282.029 239 287C239 291.971 234.971 296 230 296H154C149.029 296 145 291.971 145 287Z" fill="#C5C5C5"/>
<path d="M145 287C145 282.029 149.029 278 154 278H230C234.971 278 239 282.029 239 287C239 291.971 234.971 296 230 296H154C149.029 296 145 291.971 145 287Z" fill="#C5C5C5"/>
<path d="M145 112C145 108.686 147.686 106 151 106H233C236.314 106 239 108.686 239 112V178C239 181.314 236.314 184 233 184H151C147.686 184 145 181.314 145 178V112Z" fill="#A7DAC6"/>
<path d="M357.181 147.181C358.938 145.423 361.787 145.423 363.544 147.181L392.182 175.818C393.939 177.576 393.939 180.424 392.182 182.182L363.544 210.819C361.787 212.577 358.938 212.577 357.181 210.819C355.423 209.062 355.423 206.213 357.181 204.456L378.136 183.5L319 183.5C316.515 183.5 314.5 181.485 314.5 179C314.5 176.515 316.515 174.5 319 174.5L378.136 174.5L357.181 153.544C355.423 151.786 355.423 148.938 357.181 147.181Z" fill="#484848"/>
<path d="M499 38.5C499 35.4624 501.462 33 504.5 33H546.5C549.538 33 552 35.4624 552 38.5C552 41.5376 549.538 44 546.5 44H504.5C501.462 44 499 41.5376 499 38.5Z" fill="#F59A9A"/>
<path d="M499 170C499 166.686 501.686 164 505 164H546C549.314 164 552 166.686 552 170C552 173.314 549.314 176 546 176H505C501.686 176 499 173.314 499 170Z" fill="#F59A9A"/>
<path d="M566 38.5C566 35.4624 568.462 33 571.5 33H675.5C678.538 33 681 35.4624 681 38.5C681 41.5376 678.538 44 675.5 44H571.5C568.462 44 566 41.5376 566 38.5Z" fill="#EFDEB1"/>
<path d="M499 60.5C499 56.9101 501.91 54 505.5 54H597.5C601.09 54 604 56.9101 604 60.5C604 64.0899 601.09 67 597.5 67H505.5C501.91 67 499 64.0899 499 60.5Z" fill="#E3E3E3"/>
<path d="M499 60.5C499 56.9101 501.91 54 505.5 54H597.5C601.09 54 604 56.9101 604 60.5C604 64.0899 601.09 67 597.5 67H505.5C501.91 67 499 64.0899 499 60.5Z" fill="#E3E3E3"/>
<path d="M499 192C499 188.686 501.686 186 505 186H648C651.314 186 654 188.686 654 192C654 195.314 651.314 198 648 198H505C501.686 198 499 195.314 499 192Z" fill="#E3E3E3"/>
<path d="M499 192C499 188.686 501.686 186 505 186H648C651.314 186 654 188.686 654 192C654 195.314 651.314 198 648 198H505C501.686 198 499 195.314 499 192Z" fill="#E3E3E3"/>
<path d="M499 213.5C499 210.462 501.462 208 504.5 208H598.5C601.538 208 604 210.462 604 213.5C604 216.538 601.538 219 598.5 219H504.5C501.462 219 499 216.538 499 213.5Z" fill="#E3E3E3"/>
<path d="M499 213.5C499 210.462 501.462 208 504.5 208H598.5C601.538 208 604 210.462 604 213.5C604 216.538 601.538 219 598.5 219H504.5C501.462 219 499 216.538 499 213.5Z" fill="#E3E3E3"/>
<path d="M499 305.5C499 302.462 501.462 300 504.5 300H552.5C555.538 300 558 302.462 558 305.5C558 308.538 555.538 311 552.5 311H504.5C501.462 311 499 308.538 499 305.5Z" fill="#E3E3E3"/>
<path d="M499 305.5C499 302.462 501.462 300 504.5 300H552.5C555.538 300 558 302.462 558 305.5C558 308.538 555.538 311 552.5 311H504.5C501.462 311 499 308.538 499 305.5Z" fill="#E3E3E3"/>
<path d="M618 60.5C618 56.9101 620.91 54 624.5 54H637.5C641.09 54 644 56.9101 644 60.5C644 64.0899 641.09 67 637.5 67H624.5C620.91 67 618 64.0899 618 60.5Z" fill="#E3E3E3"/>
<path d="M618 60.5C618 56.9101 620.91 54 624.5 54H637.5C641.09 54 644 56.9101 644 60.5C644 64.0899 641.09 67 637.5 67H624.5C620.91 67 618 64.0899 618 60.5Z" fill="#E3E3E3"/>
<path d="M518 261.5C518 258.462 520.462 256 523.5 256H538.5C541.538 256 544 258.462 544 261.5C544 264.538 541.538 267 538.5 267H523.5C520.462 267 518 264.538 518 261.5Z" fill="#E3E3E3"/>
<path d="M518 261.5C518 258.462 520.462 256 523.5 256H538.5C541.538 256 544 258.462 544 261.5C544 264.538 541.538 267 538.5 267H523.5C520.462 267 518 264.538 518 261.5Z" fill="#E3E3E3"/>
<path d="M499 82.5C499 79.4624 501.462 77 504.5 77H519.5C522.538 77 525 79.4624 525 82.5C525 85.5376 522.538 88 519.5 88H504.5C501.462 88 499 85.5376 499 82.5Z" fill="#E3E3E3"/>
<path d="M499 82.5C499 79.4624 501.462 77 504.5 77H519.5C522.538 77 525 79.4624 525 82.5C525 85.5376 522.538 88 519.5 88H504.5C501.462 88 499 85.5376 499 82.5Z" fill="#E3E3E3"/>
<path d="M444 23H485V337H453C448.029 337 444 332.971 444 328V23Z" fill="#E3E3E3"/>
<path d="M444 23H485V337H453C448.029 337 444 332.971 444 328V23Z" fill="#7E7A7A"/>
<path d="M444 9C444 4.02943 448.029 0 453 0H713C717.971 0 722 4.02944 722 9V23H444V9Z" fill="#C2C2C2"/>
<path d="M518 126.5C518 123.462 520.462 121 523.5 121H538.5C541.538 121 544 123.462 544 126.5C544 129.538 541.538 132 538.5 132H523.5C520.462 132 518 129.538 518 126.5Z" fill="#E3E3E3"/>
<path d="M518 126.5C518 123.462 520.462 121 523.5 121H538.5C541.538 121 544 123.462 544 126.5C544 129.538 541.538 132 538.5 132H523.5C520.462 132 518 129.538 518 126.5Z" fill="#E3E3E3"/>
<path d="M499 283C499 279.686 501.686 277 505 277H519C522.314 277 525 279.686 525 283C525 286.314 522.314 289 519 289H505C501.686 289 499 286.314 499 283Z" fill="#F59A9A"/>
<path d="M518 147.5C518 144.462 520.462 142 523.5 142H552.5C555.538 142 558 144.462 558 147.5C558 150.538 555.538 153 552.5 153H523.5C520.462 153 518 150.538 518 147.5Z" fill="#E3E3E3"/>
<path d="M518 147.5C518 144.462 520.462 142 523.5 142H552.5C555.538 142 558 144.462 558 147.5C558 150.538 555.538 153 552.5 153H523.5C520.462 153 518 150.538 518 147.5Z" fill="#71BFD8"/>
<path d="M518 239.5C518 236.462 520.462 234 523.5 234H552.5C555.538 234 558 236.462 558 239.5C558 242.538 555.538 245 552.5 245H523.5C520.462 245 518 242.538 518 239.5Z" fill="#E3E3E3"/>
<path d="M518 239.5C518 236.462 520.462 234 523.5 234H552.5C555.538 234 558 236.462 558 239.5C558 242.538 555.538 245 552.5 245H523.5C520.462 245 518 242.538 518 239.5Z" fill="#71BFD8"/>
<path d="M518 104.5C518 100.91 520.91 98 524.5 98H573.5C577.09 98 580 100.91 580 104.5C580 108.09 577.09 111 573.5 111H524.5C520.91 111 518 108.09 518 104.5Z" fill="#EFDEB1"/>
<path d="M558 261.5C558 258.462 560.462 256 563.5 256H613.5C616.538 256 619 258.462 619 261.5C619 264.538 616.538 267 613.5 267H563.5C560.462 267 558 264.538 558 261.5Z" fill="#EFDEB1"/>
<path d="M665 192C665 188.686 667.686 186 671 186H703C706.314 186 709 188.686 709 192C709 195.314 706.314 198 703 198H671C667.686 198 665 195.314 665 192Z" fill="#EFDEB1"/>
<path d="M449 43.5C449 40.4624 451.462 38 454.5 38H469.5C472.538 38 475 40.4624 475 43.5C475 46.5376 472.538 49 469.5 49H454.5C451.462 49 449 46.5376 449 43.5Z" fill="#E3E3E3"/>
<path d="M449 43.5C449 40.4624 451.462 38 454.5 38H469.5C472.538 38 475 40.4624 475 43.5C475 46.5376 472.538 49 469.5 49H454.5C451.462 49 449 46.5376 449 43.5Z" fill="#E3E3E3"/>
<path d="M449 60.5C449 56.9101 451.91 54 455.5 54H474.5C478.09 54 481 56.9101 481 60.5C481 64.0899 478.09 67 474.5 67H455.5C451.91 67 449 64.0899 449 60.5Z" fill="#E3E3E3"/>
<path d="M449 60.5C449 56.9101 451.91 54 455.5 54H474.5C478.09 54 481 56.9101 481 60.5C481 64.0899 478.09 67 474.5 67H455.5C451.91 67 449 64.0899 449 60.5Z" fill="#E3E3E3"/>
<path d="M449 77.5C449 74.4624 451.462 72 454.5 72H467.5C470.538 72 473 74.4624 473 77.5C473 80.5376 470.538 83 467.5 83H454.5C451.462 83 449 80.5376 449 77.5Z" fill="#E3E3E3"/>
<path d="M449 77.5C449 74.4624 451.462 72 454.5 72H467.5C470.538 72 473 74.4624 473 77.5C473 80.5376 470.538 83 467.5 83H454.5C451.462 83 449 80.5376 449 77.5Z" fill="#E3E3E3"/>
<path d="M449 94C449 90.6863 451.686 88 455 88H472C475.314 88 478 90.6863 478 94C478 97.3137 475.314 100 472 100H455C451.686 100 449 97.3137 449 94Z" fill="#E3E3E3"/>
<path d="M449 94C449 90.6863 451.686 88 455 88H472C475.314 88 478 90.6863 478 94C478 97.3137 475.314 100 472 100H455C451.686 100 449 97.3137 449 94Z" fill="#E3E3E3"/>
<path d="M449 110.5C449 107.462 451.462 105 454.5 105H472.5C475.538 105 478 107.462 478 110.5C478 113.538 475.538 116 472.5 116H454.5C451.462 116 449 113.538 449 110.5Z" fill="#E3E3E3"/>
<path d="M449 110.5C449 107.462 451.462 105 454.5 105H472.5C475.538 105 478 107.462 478 110.5C478 113.538 475.538 116 472.5 116H454.5C451.462 116 449 113.538 449 110.5Z" fill="#E3E3E3"/>
<path d="M449 127.5C449 124.462 451.462 122 454.5 122H469.5C472.538 122 475 124.462 475 127.5C475 130.538 472.538 133 469.5 133H454.5C451.462 133 449 130.538 449 127.5Z" fill="#E3E3E3"/>
<path d="M449 127.5C449 124.462 451.462 122 454.5 122H469.5C472.538 122 475 124.462 475 127.5C475 130.538 472.538 133 469.5 133H454.5C451.462 133 449 130.538 449 127.5Z" fill="#E3E3E3"/>
<path d="M452 12.5C452 10.567 453.567 9 455.5 9H456.5C458.433 9 460 10.567 460 12.5C460 14.433 458.433 16 456.5 16H455.5C453.567 16 452 14.433 452 12.5Z" fill="#FF605C"/>
<path d="M463 12.5C463 10.567 464.567 9 466.5 9H468.5C470.433 9 472 10.567 472 12.5C472 14.433 470.433 16 468.5 16H466.5C464.567 16 463 14.433 463 12.5Z" fill="#FFBD44"/>
<path d="M475 12.5C475 10.567 476.567 9 478.5 9H479.5C481.433 9 483 10.567 483 12.5C483 14.433 481.433 16 479.5 16H478.5C476.567 16 475 14.433 475 12.5Z" fill="#00CA4E"/>
</svg>
