<svg width="801" height="340" viewBox="0 0 801 340" fill="none" xmlns="http://www.w3.org/2000/svg">
<path d="M0 0H801V340H0V0Z" fill="white"/>
<path d="M208.15 189.526C208.525 196.218 208.508 201.142 209.369 201.391C212.151 202.194 220.084 188.211 220.469 188.895C225.829 198.411 216.469 233.395 200.469 242.395C175.809 256.267 130.725 259.491 113.687 234.92C108.457 227.377 104.707 217.434 104.13 208.212C102.673 184.939 113.757 165.333 124.172 145.424C127.246 139.547 127.543 139.134 127.835 144.106C128.128 149.078 128.409 159.13 128.657 164.452C128.905 169.774 129.185 170.642 129.327 170.452C139.71 156.668 144.997 155.857 146.969 138.832C148.073 129.305 142.323 116.895 145.384 105.387C145.773 103.923 147.573 106.634 151.658 113.166C155.742 119.698 162.306 129.91 165.988 135.397C169.671 140.883 170.449 141.623 171.103 141.968C171.757 142.313 172.376 142.352 172.65 141.92C173.427 140.695 176.652 133.192 176.942 134.073C178.405 138.521 180.187 148.536 184.232 152.679C192.93 161.589 207.396 176.091 208.15 189.526Z" fill="#E78582"/>
<path d="M150.969 224.395C150.969 228.813 147.387 232.395 142.969 232.395C138.551 232.395 134.969 228.813 134.969 224.395C134.969 219.977 138.551 216.395 142.969 216.395C147.387 216.395 150.969 219.977 150.969 224.395Z" fill="#FFEF76"/>
<path d="M162.969 208.395C162.969 212.813 159.387 216.395 154.969 216.395C150.551 216.395 146.969 212.813 146.969 208.395C146.969 203.977 150.551 200.395 154.969 200.395C159.387 200.395 162.969 203.977 162.969 208.395Z" fill="#F0F0F0"/>
<path d="M176.969 224.395C176.969 228.813 173.387 232.395 168.969 232.395C164.551 232.395 160.969 228.813 160.969 224.395C160.969 219.977 164.551 216.395 168.969 216.395C173.387 216.395 176.969 219.977 176.969 224.395Z" fill="#FCAF6C"/>
<path d="M198.969 207.395C198.969 211.813 195.388 215.395 190.969 215.395C186.551 215.395 182.969 211.813 182.969 207.395C182.969 202.977 186.551 199.395 190.969 199.395C195.388 199.395 198.969 202.977 198.969 207.395Z" fill="#F0F0F0"/>
<path d="M134.969 207.395C134.969 211.813 131.387 215.395 126.969 215.395C122.551 215.395 118.969 211.813 118.969 207.395C118.969 202.977 122.551 199.395 126.969 199.395C131.387 199.395 134.969 202.977 134.969 207.395Z" fill="#FCAF6C"/>
<path d="M180.969 193.395C180.969 197.813 177.387 201.395 172.969 201.395C168.551 201.395 164.969 197.813 164.969 193.395C164.969 188.977 168.551 185.395 172.969 185.395C177.387 185.395 180.969 188.977 180.969 193.395Z" fill="#FFEF76"/>
<path d="M152.969 191.395C152.969 195.813 149.387 199.395 144.969 199.395C140.551 199.395 136.969 195.813 136.969 191.395C136.969 186.977 140.551 183.395 144.969 183.395C149.387 183.395 152.969 186.977 152.969 191.395Z" fill="#FFEF76"/>
<path d="M282.787 177.787C283.959 176.616 285.858 176.616 287.029 177.787L306.121 196.879C307.293 198.05 307.293 199.95 306.121 201.121L287.029 220.213C285.858 221.384 283.959 221.384 282.787 220.213C281.616 219.041 281.616 217.142 282.787 215.971L296.758 202H252C250.343 202 249 200.657 249 199C249 197.343 250.343 196 252 196H296.758L282.787 182.029C281.616 180.858 281.616 178.959 282.787 177.787Z" fill="#484848"/>
<path d="M551.787 179.787C552.959 178.616 554.858 178.616 556.029 179.787L575.121 198.879C576.293 200.05 576.293 201.95 575.121 203.121L556.029 222.213C554.858 223.384 552.959 223.384 551.787 222.213C550.616 221.041 550.616 219.142 551.787 217.971L565.758 204H521C519.343 204 518 202.657 518 201C518 199.343 519.343 198 521 198H565.758L551.787 184.029C550.616 182.858 550.616 180.959 551.787 179.787Z" fill="#484848"/>
<path d="M443.022 154.684C444.52 154.684 445.75 155.04 446.771 155.605C447.489 156.002 448.051 156.481 448.424 156.823L448.854 157.225L448.962 157.352C449.406 157.874 449.875 158.516 450.271 159.461C450.641 160.347 450.901 161.387 451.104 162.681C451.453 164.914 451.685 168.29 451.834 173.686L451.893 176.125V176.165C451.991 188.926 451.996 213.444 452 238.683C452 240.34 450.658 241.684 449.001 241.684C447.344 241.685 446.001 240.342 446 238.685C445.996 213.458 445.992 188.994 445.894 176.251L445.835 173.824C445.687 168.496 445.464 165.451 445.176 163.608C445.014 162.575 444.85 162.053 444.735 161.778C444.664 161.607 444.598 161.497 444.488 161.358C444.172 161.064 444.036 160.949 443.868 160.856C443.745 160.788 443.515 160.684 443.023 160.684C435.044 160.686 431.792 163.001 426.1 164.775C420.608 166.487 413.952 168.621 408.685 172.344C407.819 172.955 406.786 173.87 405.444 175.067C404.157 176.216 402.653 177.56 401.013 178.826C397.782 181.319 393.605 183.845 388.714 183.994C379.959 184.26 375.533 182.862 370.42 180.992C362.839 178.219 356.627 178.654 352.13 179.746C349.864 180.296 348.006 181.021 346.578 181.629C345.969 181.888 345.142 182.258 344.695 182.444C344.43 182.555 344.129 182.674 343.835 182.769C343.602 182.844 343.093 183 342.5 183C340.843 183 339.5 181.657 339.5 180C339.5 178.492 340.613 177.244 342.062 177.032C342.128 177.008 342.233 176.97 342.386 176.906C342.911 176.687 343.331 176.49 344.228 176.108C345.811 175.434 348.004 174.574 350.714 173.916C356.169 172.591 363.611 172.113 372.481 175.357C377.133 177.059 380.774 178.233 388.531 177.997C391.49 177.907 394.41 176.343 397.348 174.076C398.791 172.962 400.139 171.759 401.45 170.59C402.707 169.469 404.018 168.294 405.222 167.444C411.379 163.093 418.941 160.721 424.314 159.047C428.83 157.639 433.826 154.686 443.022 154.684Z" fill="#F6B769"/>
<path d="M402 246.5C402 242.358 405.358 239 409.5 239H487.5C491.642 239 495 242.358 495 246.5C495 250.642 491.642 254 487.5 254H409.5C405.358 254 402 250.642 402 246.5Z" fill="#F6B769"/>
<path d="M611 238.5C611 234.358 614.358 231 618.5 231H696.5C700.642 231 704 234.358 704 238.5C704 242.642 700.642 246 696.5 246H618.5C614.358 246 611 242.642 611 238.5Z" fill="#F6B769"/>
<path d="M631.025 163.621C631.787 162.821 633.054 162.79 633.853 163.552C634.653 164.313 634.684 165.579 633.923 166.379C628.898 171.656 627.133 176.133 627.334 180.064C627.537 184.033 629.768 187.966 633.889 192.086C638.021 196.218 639.27 203.368 638.012 209.762C636.739 216.229 632.764 222.616 625.609 224.905C624.557 225.242 623.431 224.661 623.095 223.609C622.758 222.557 623.339 221.431 624.391 221.095C629.735 219.384 632.998 214.521 634.087 208.988C635.19 203.382 633.927 197.782 631.06 194.914C626.621 190.476 623.616 185.658 623.34 180.268C623.062 174.837 625.577 169.343 631.025 163.621ZM659.025 163.621C659.787 162.821 661.054 162.79 661.854 163.552C662.653 164.313 662.684 165.579 661.923 166.379C656.898 171.656 655.133 176.133 655.334 180.064C655.537 184.033 657.768 187.966 661.889 192.086C666.021 196.218 667.27 203.368 666.012 209.762C664.739 216.229 660.764 222.616 653.609 224.905C652.557 225.242 651.431 224.661 651.095 223.609C650.758 222.557 651.339 221.431 652.391 221.095C657.736 219.384 660.998 214.521 662.087 208.988C663.19 203.382 661.927 197.782 659.06 194.914C654.621 190.476 651.616 185.658 651.34 180.268C651.062 174.837 653.577 169.343 659.025 163.621ZM685.025 163.621C685.787 162.821 687.054 162.79 687.854 163.552C688.653 164.313 688.684 165.579 687.923 166.379C682.898 171.656 681.133 176.133 681.334 180.064C681.537 184.033 683.768 187.966 687.889 192.086C692.021 196.218 693.27 203.368 692.012 209.762C690.739 216.229 686.764 222.616 679.609 224.905C678.557 225.242 677.431 224.661 677.095 223.609C676.758 222.557 677.339 221.431 678.391 221.095C683.736 219.384 686.998 214.521 688.087 208.988C689.19 203.382 687.927 197.782 685.06 194.914C680.621 190.476 677.616 185.658 677.34 180.268C677.062 174.837 679.577 169.343 685.025 163.621Z" fill="#FF9999"/>
<path d="M416 199.684C416 210.73 400.106 219.684 380.5 219.684C360.894 219.684 345 210.73 345 199.684C345 188.639 360.894 179.684 380.5 179.684C400.106 179.684 416 188.639 416 199.684Z" fill="#F6B769"/>
<path d="M424.381 176.009C428.037 182.631 422.77 192.542 412.619 198.146C402.467 203.749 391.274 202.923 387.619 196.301C383.963 189.679 389.23 179.768 399.381 174.164C409.533 168.561 420.726 169.387 424.381 176.009Z" fill="#F6B769"/>
<path d="M434.626 163.563C435.937 167.118 429.458 172.781 420.155 176.212C410.851 179.642 402.247 179.542 400.936 175.987C399.625 172.432 406.104 166.769 415.408 163.339C424.711 159.908 433.316 160.009 434.626 163.563Z" fill="#F6B769"/>
<path d="M448.818 160.769C449.993 163.956 445.809 168.433 439.473 170.769C433.137 173.106 427.048 172.417 425.873 169.231C424.698 166.044 428.882 161.567 435.218 159.231C441.554 156.894 447.643 157.583 448.818 160.769Z" fill="#F6B769"/>
<path d="M408.614 213.848C405.346 224.414 389.148 228.789 372.433 223.62C355.719 218.452 344.817 205.697 348.084 195.131C351.351 184.565 367.55 180.19 384.265 185.358C400.979 190.527 411.881 203.282 408.614 213.848Z" fill="#F6B769"/>
<path d="M400.445 206.848C397.178 217.414 380.979 221.789 364.265 216.62C347.55 211.452 336.649 198.697 339.916 188.131C343.183 177.565 359.381 173.19 376.096 178.358C392.811 183.527 403.712 196.282 400.445 206.848Z" fill="#F6B769"/>
<path d="M401.985 223.437C396.454 229.753 384.366 228.214 374.985 220C365.605 211.785 362.484 200.006 368.015 193.69C373.546 187.373 385.634 188.912 395.015 197.126C404.395 205.341 407.516 217.12 401.985 223.437Z" fill="#F6B769"/>
<path d="M373 189.684C373 198.521 365.389 205.684 356 205.684C346.611 205.684 339 198.521 339 189.684C339 180.848 346.611 173.684 356 173.684C365.389 173.684 373 180.848 373 189.684Z" fill="#F6B769"/>
<path d="M374.769 132.944C376.834 132.16 379.144 133.2 379.928 135.265C380.711 137.331 379.673 139.641 377.607 140.425C367.786 144.152 357.27 153.666 350.624 165.196C343.961 176.755 341.739 189.307 346.696 199.343C349.919 205.869 357.807 212.251 367.343 216.932C376.827 221.589 386.96 224.081 393.857 223.633C396.091 223.487 398.957 221.642 402.42 217.089C405.749 212.711 408.97 206.712 412.135 200.13C413.706 196.862 415.237 193.509 416.746 190.198C418.249 186.902 419.735 183.637 421.19 180.608C424.022 174.715 427 169.131 430.149 165.837L430.318 165.67C431.171 164.876 432.129 164.665 432.288 164.626C432.671 164.531 433.029 164.49 433.276 164.468C433.788 164.424 434.361 164.419 434.886 164.426C435.956 164.439 437.317 164.511 438.608 164.578C439.947 164.647 441.25 164.714 442.352 164.734C443.606 164.757 444.101 164.702 444.102 164.703C446.254 164.207 448.401 165.549 448.897 167.702C449.394 169.855 448.051 172.003 445.898 172.499C444.787 172.755 443.302 172.753 442.203 172.733C440.943 172.71 439.499 172.635 438.194 172.567C436.959 172.503 435.866 172.448 435.017 172.43C433.092 174.872 430.899 178.873 428.4 184.073C426.987 187.014 425.537 190.199 424.025 193.516C422.52 196.819 420.957 200.244 419.345 203.596C416.143 210.255 412.636 216.872 408.788 221.931C405.074 226.815 400.311 231.23 394.376 231.616C385.584 232.187 374.013 229.119 363.816 224.113C353.671 219.132 343.901 211.749 339.523 202.886C332.9 189.476 336.354 173.934 343.693 161.201C351.05 148.438 362.864 137.462 374.769 132.944Z" fill="black"/>
<path d="M190.695 132.008C191.55 130.298 194.483 126.766 195.132 124.925C196.825 120.269 195.185 112.016 189.533 109.498C187.435 108.563 184.197 114.195 187.164 118.06C190.132 121.926 190.695 129.06 190.695 132.008Z" fill="#E78582"/>
<path d="M108.135 96.1599C108.551 96.1599 108.895 96.3039 109.167 96.5919C109.439 96.8639 109.575 97.2079 109.575 97.6239V103.72C109.575 105.416 109.103 106.76 108.159 107.752C107.215 108.744 105.855 109.24 104.079 109.24C102.303 109.24 100.943 108.744 99.9989 107.752C99.0709 106.76 98.6069 105.416 98.6069 103.72V97.6239C98.6069 97.2079 98.7429 96.8639 99.0149 96.5919C99.2869 96.3039 99.6309 96.1599 100.047 96.1599C100.463 96.1599 100.807 96.3039 101.079 96.5919C101.351 96.8639 101.487 97.2079 101.487 97.6239V103.72C101.487 104.696 101.703 105.424 102.135 105.904C102.567 106.368 103.215 106.6 104.079 106.6C104.959 106.6 105.615 106.368 106.047 105.904C106.479 105.424 106.695 104.696 106.695 103.72V97.6239C106.695 97.2079 106.831 96.8639 107.103 96.5919C107.375 96.3039 107.719 96.1599 108.135 96.1599Z" fill="#484848"/>
<path d="M95.56 93.0161C95.976 93.2241 96.216 93.5521 96.28 94.0001C96.36 94.4481 96.248 94.8561 95.944 95.2241C95.736 95.5121 95.464 95.6721 95.128 95.7041C94.808 95.7361 94.48 95.6721 94.144 95.5121C93.76 95.3361 93.352 95.2001 92.92 95.1041C92.504 95.0081 92.064 94.9601 91.6 94.9601C90.736 94.9601 89.96 95.0961 89.272 95.3681C88.6 95.6401 88.024 96.0321 87.544 96.5441C87.064 97.0401 86.696 97.6321 86.44 98.3201C86.2 99.0081 86.08 99.7681 86.08 100.6C86.08 101.576 86.216 102.424 86.488 103.144C86.776 103.864 87.168 104.464 87.664 104.944C88.16 105.424 88.744 105.784 89.416 106.024C90.088 106.248 90.816 106.36 91.6 106.36C92.032 106.36 92.464 106.32 92.896 106.24C93.328 106.16 93.744 106.016 94.144 105.808C94.48 105.648 94.808 105.592 95.128 105.64C95.464 105.688 95.744 105.856 95.968 106.144C96.288 106.544 96.4 106.96 96.304 107.392C96.224 107.808 95.984 108.112 95.584 108.304C95.168 108.512 94.736 108.688 94.288 108.832C93.856 108.96 93.416 109.056 92.968 109.12C92.52 109.2 92.064 109.24 91.6 109.24C90.448 109.24 89.352 109.056 88.312 108.688C87.288 108.32 86.368 107.776 85.552 107.056C84.752 106.336 84.12 105.44 83.656 104.368C83.192 103.28 82.96 102.024 82.96 100.6C82.96 99.3681 83.168 98.2321 83.584 97.1921C84.016 96.1521 84.616 95.2561 85.384 94.5041C86.168 93.7361 87.088 93.1441 88.144 92.7281C89.2 92.2961 90.352 92.0801 91.6 92.0801C92.304 92.0801 92.992 92.1601 93.664 92.3201C94.336 92.4801 94.968 92.7121 95.56 93.0161Z" fill="#484848"/>
<path d="M195.182 72.1599C195.598 72.1599 195.942 72.3039 196.214 72.5919C196.486 72.8639 196.622 73.2079 196.622 73.6239V79.7199C196.622 81.4159 196.15 82.7599 195.206 83.7519C194.262 84.7439 192.902 85.2399 191.126 85.2399C189.35 85.2399 187.99 84.7439 187.046 83.7519C186.118 82.7599 185.654 81.4159 185.654 79.7199V73.6239C185.654 73.2079 185.79 72.8639 186.062 72.5919C186.334 72.3039 186.678 72.1599 187.094 72.1599C187.51 72.1599 187.854 72.3039 188.126 72.5919C188.398 72.8639 188.534 73.2079 188.534 73.6239V79.7199C188.534 80.6959 188.75 81.4239 189.182 81.9039C189.614 82.3679 190.262 82.5999 191.126 82.5999C192.006 82.5999 192.662 82.3679 193.094 81.9039C193.526 81.4239 193.742 80.6959 193.742 79.7199V73.6239C193.742 73.2079 193.878 72.8639 194.15 72.5919C194.422 72.3039 194.766 72.1599 195.182 72.1599Z" fill="#484848"/>
<path d="M176.968 71.9681L171.784 84.1601C171.672 84.4641 171.496 84.7041 171.256 84.8801C171.032 85.0401 170.784 85.1201 170.512 85.1201C170.08 85.1201 169.76 85.0001 169.552 84.7601C169.344 84.5201 169.24 84.2241 169.24 83.8721C169.24 83.7281 169.264 83.5761 169.312 83.4161L175.288 69.0641C175.416 68.7441 175.608 68.4961 175.864 68.3201C176.136 68.1441 176.424 68.0721 176.728 68.1041C177.016 68.1041 177.28 68.1921 177.52 68.3681C177.776 68.5281 177.96 68.7601 178.072 69.0641L183.976 83.1281C184.056 83.3361 184.096 83.5281 184.096 83.7041C184.096 84.1361 183.952 84.4801 183.664 84.7361C183.392 84.9921 183.088 85.1201 182.752 85.1201C182.464 85.1201 182.2 85.0321 181.96 84.8561C181.736 84.6801 181.56 84.4401 181.432 84.1361L176.272 72.1121L176.968 71.9681ZM172.528 81.2321L173.848 78.4721H180.328L180.784 81.2321H172.528Z" fill="#484848"/>
<path d="M480.633 79.8041C480.633 80.4281 480.417 80.9561 479.985 81.3881C479.577 81.7961 479.061 82.0001 478.437 82.0001C477.837 82.0001 477.333 81.7961 476.925 81.3881C476.517 80.9561 476.313 80.4281 476.313 79.8041V57.5561C476.313 56.9321 476.517 56.4161 476.925 56.0081C477.357 55.5761 477.885 55.3601 478.509 55.3601C479.133 55.3601 479.637 55.5761 480.021 56.0081C480.429 56.4161 480.633 56.9321 480.633 57.5561V79.8041Z" fill="black"/>
<path d="M469.116 62.3799C469.74 62.3799 470.256 62.5839 470.664 62.9919C471.072 63.3999 471.276 63.9279 471.276 64.5759V79.8039C471.276 80.4279 471.072 80.9559 470.664 81.3879C470.256 81.7959 469.74 81.9999 469.116 81.9999C468.492 81.9999 467.976 81.7959 467.568 81.3879C467.16 80.9559 466.956 80.4279 466.956 79.8039V78.0399L467.748 78.3639C467.748 78.6759 467.58 79.0599 467.244 79.5159C466.908 79.9479 466.452 80.3799 465.876 80.8119C465.3 81.2439 464.616 81.6159 463.824 81.9279C463.056 82.2159 462.216 82.3599 461.304 82.3599C459.648 82.3599 458.148 81.9399 456.804 81.0999C455.46 80.2359 454.392 79.0599 453.6 77.5719C452.832 76.0599 452.448 74.3319 452.448 72.3879C452.448 70.4199 452.832 68.6919 453.6 67.2039C454.392 65.6919 455.448 64.5159 456.768 63.6759C458.088 62.8119 459.552 62.3799 461.16 62.3799C462.192 62.3799 463.14 62.5359 464.004 62.8479C464.868 63.1599 465.612 63.5559 466.236 64.0359C466.884 64.5159 467.376 65.0079 467.712 65.5119C468.072 65.9919 468.252 66.3999 468.252 66.7359L466.956 67.2039V64.5759C466.956 63.9519 467.16 63.4359 467.568 63.0279C467.976 62.5959 468.492 62.3799 469.116 62.3799ZM461.844 78.3999C462.9 78.3999 463.824 78.1359 464.616 77.6079C465.408 77.0799 466.02 76.3599 466.452 75.4479C466.908 74.5359 467.136 73.5159 467.136 72.3879C467.136 71.2359 466.908 70.2039 466.452 69.2919C466.02 68.3799 465.408 67.6599 464.616 67.1319C463.824 66.6039 462.9 66.3399 461.844 66.3399C460.812 66.3399 459.9 66.6039 459.108 67.1319C458.316 67.6599 457.692 68.3799 457.236 69.2919C456.804 70.2039 456.588 71.2359 456.588 72.3879C456.588 73.5159 456.804 74.5359 457.236 75.4479C457.692 76.3599 458.316 77.0799 459.108 77.6079C459.9 78.1359 460.812 78.3999 461.844 78.3999Z" fill="black"/>
<path d="M448.908 79.804C448.908 80.428 448.704 80.956 448.296 81.388C447.888 81.796 447.372 82 446.748 82C446.124 82 445.608 81.796 445.2 81.388C444.792 80.956 444.588 80.428 444.588 79.804V64.936C444.588 64.312 444.792 63.796 445.2 63.388C445.608 62.956 446.124 62.74 446.748 62.74C447.372 62.74 447.888 62.956 448.296 63.388C448.704 63.796 448.908 64.312 448.908 64.936V79.804ZM446.712 60.4C445.896 60.4 445.32 60.268 444.984 60.004C444.648 59.74 444.48 59.272 444.48 58.6V57.916C444.48 57.22 444.66 56.752 445.02 56.512C445.404 56.248 445.98 56.116 446.748 56.116C447.588 56.116 448.176 56.248 448.512 56.512C448.848 56.776 449.016 57.244 449.016 57.916V58.6C449.016 59.296 448.836 59.776 448.476 60.04C448.116 60.28 447.528 60.4 446.712 60.4Z" fill="black"/>
<path d="M431.391 81.9999C430.767 81.9999 430.251 81.7959 429.843 81.3879C429.435 80.9559 429.231 80.4279 429.231 79.8039V64.9359C429.231 64.3119 429.435 63.7959 429.843 63.3879C430.251 62.9559 430.767 62.7399 431.391 62.7399C432.015 62.7399 432.531 62.9559 432.939 63.3879C433.347 63.7959 433.551 64.3119 433.551 64.9359V68.3199L433.299 65.9079C433.563 65.3319 433.899 64.8279 434.307 64.3959C434.739 63.9399 435.219 63.5679 435.747 63.2799C436.275 62.9679 436.839 62.7399 437.439 62.5959C438.039 62.4519 438.639 62.3799 439.239 62.3799C439.959 62.3799 440.559 62.5839 441.039 62.9919C441.543 63.3999 441.795 63.8799 441.795 64.4319C441.795 65.2239 441.591 65.7999 441.183 66.1599C440.775 66.4959 440.331 66.6639 439.851 66.6639C439.395 66.6639 438.975 66.5799 438.591 66.4119C438.231 66.2439 437.811 66.1599 437.331 66.1599C436.899 66.1599 436.455 66.2679 435.999 66.4839C435.567 66.6759 435.159 66.9879 434.775 67.4199C434.415 67.8519 434.115 68.3919 433.875 69.0399C433.659 69.6639 433.551 70.4079 433.551 71.2719V79.8039C433.551 80.4279 433.347 80.9559 432.939 81.3879C432.531 81.7959 432.015 81.9999 431.391 81.9999Z" fill="black"/>
<path d="M417.068 82.3599C415.028 82.3599 413.252 81.9399 411.74 81.0999C410.252 80.2359 409.1 79.0719 408.284 77.6079C407.492 76.1439 407.096 74.4879 407.096 72.6399C407.096 70.4799 407.528 68.6439 408.392 67.1319C409.28 65.5959 410.432 64.4199 411.848 63.6039C413.264 62.7879 414.764 62.3799 416.348 62.3799C417.572 62.3799 418.724 62.6319 419.804 63.1359C420.908 63.6399 421.88 64.3359 422.72 65.2239C423.56 66.0879 424.22 67.0959 424.7 68.2479C425.204 69.3999 425.456 70.6239 425.456 71.9199C425.432 72.4959 425.204 72.9639 424.772 73.3239C424.34 73.6839 423.836 73.8639 423.26 73.8639H409.508L408.428 70.2639H421.64L420.848 70.9839V70.0119C420.8 69.3159 420.548 68.6919 420.092 68.1399C419.66 67.5879 419.108 67.1559 418.436 66.8439C417.788 66.5079 417.092 66.3399 416.348 66.3399C415.628 66.3399 414.956 66.4359 414.332 66.6279C413.708 66.8199 413.168 67.1439 412.712 67.5999C412.256 68.0559 411.896 68.6679 411.632 69.4359C411.368 70.2039 411.236 71.1759 411.236 72.3519C411.236 73.6479 411.5 74.7519 412.028 75.6639C412.58 76.5519 413.276 77.2359 414.116 77.7159C414.98 78.1719 415.892 78.3999 416.852 78.3999C417.74 78.3999 418.448 78.3279 418.976 78.1839C419.504 78.0399 419.924 77.8719 420.236 77.6799C420.572 77.4639 420.872 77.2839 421.136 77.1399C421.568 76.9239 421.976 76.8159 422.36 76.8159C422.888 76.8159 423.32 76.9959 423.656 77.3559C424.016 77.7159 424.196 78.1359 424.196 78.6159C424.196 79.2639 423.86 79.8519 423.188 80.3799C422.564 80.9079 421.688 81.3759 420.56 81.7839C419.432 82.1679 418.268 82.3599 417.068 82.3599Z" fill="black"/>
<path d="M393.658 63.1001H402.19C402.766 63.1001 403.246 63.2921 403.63 63.6761C404.014 64.0601 404.206 64.5401 404.206 65.1161C404.206 65.6681 404.014 66.1361 403.63 66.5201C403.246 66.8801 402.766 67.0601 402.19 67.0601H393.658C393.082 67.0601 392.602 66.8681 392.218 66.4841C391.834 66.1001 391.642 65.6201 391.642 65.0441C391.642 64.4921 391.834 64.0361 392.218 63.6761C392.602 63.2921 393.082 63.1001 393.658 63.1001ZM397.51 58.6001C398.134 58.6001 398.638 58.8161 399.022 59.2481C399.43 59.6561 399.634 60.1721 399.634 60.7961V76.8161C399.634 77.1521 399.694 77.4281 399.814 77.6441C399.958 77.8601 400.138 78.0161 400.354 78.1121C400.594 78.2081 400.846 78.2561 401.11 78.2561C401.398 78.2561 401.662 78.2081 401.902 78.1121C402.142 77.9921 402.418 77.9321 402.73 77.9321C403.066 77.9321 403.366 78.0881 403.63 78.4001C403.918 78.7121 404.062 79.1441 404.062 79.6961C404.062 80.3681 403.69 80.9201 402.946 81.3521C402.226 81.7841 401.446 82.0001 400.606 82.0001C400.102 82.0001 399.538 81.9641 398.914 81.8921C398.314 81.7961 397.738 81.5921 397.186 81.2801C396.658 80.9441 396.214 80.4401 395.854 79.7681C395.494 79.0961 395.314 78.1721 395.314 76.9961V60.7961C395.314 60.1721 395.518 59.6561 395.926 59.2481C396.358 58.8161 396.886 58.6001 397.51 58.6001Z" fill="black"/>
<path d="M386.604 62.3799C387.228 62.3799 387.744 62.5839 388.152 62.9919C388.56 63.3999 388.764 63.9279 388.764 64.5759V79.8039C388.764 80.4279 388.56 80.9559 388.152 81.3879C387.744 81.7959 387.228 81.9999 386.604 81.9999C385.98 81.9999 385.464 81.7959 385.056 81.3879C384.648 80.9559 384.444 80.4279 384.444 79.8039V78.0399L385.236 78.3639C385.236 78.6759 385.068 79.0599 384.732 79.5159C384.396 79.9479 383.94 80.3799 383.364 80.8119C382.788 81.2439 382.104 81.6159 381.312 81.9279C380.544 82.2159 379.704 82.3599 378.792 82.3599C377.136 82.3599 375.636 81.9399 374.292 81.0999C372.948 80.2359 371.88 79.0599 371.088 77.5719C370.32 76.0599 369.936 74.3319 369.936 72.3879C369.936 70.4199 370.32 68.6919 371.088 67.2039C371.88 65.6919 372.936 64.5159 374.256 63.6759C375.576 62.8119 377.04 62.3799 378.648 62.3799C379.68 62.3799 380.628 62.5359 381.492 62.8479C382.356 63.1599 383.1 63.5559 383.724 64.0359C384.372 64.5159 384.864 65.0079 385.2 65.5119C385.56 65.9919 385.74 66.3999 385.74 66.7359L384.444 67.2039V64.5759C384.444 63.9519 384.648 63.4359 385.056 63.0279C385.464 62.5959 385.98 62.3799 386.604 62.3799ZM379.332 78.3999C380.388 78.3999 381.312 78.1359 382.104 77.6079C382.896 77.0799 383.508 76.3599 383.94 75.4479C384.396 74.5359 384.624 73.5159 384.624 72.3879C384.624 71.2359 384.396 70.2039 383.94 69.2919C383.508 68.3799 382.896 67.6599 382.104 67.1319C381.312 66.6039 380.388 66.3399 379.332 66.3399C378.3 66.3399 377.388 66.6039 376.596 67.1319C375.804 67.6599 375.18 68.3799 374.724 69.2919C374.292 70.2039 374.076 71.2359 374.076 72.3879C374.076 73.5159 374.292 74.5359 374.724 75.4479C375.18 76.3599 375.804 77.0799 376.596 77.6079C377.388 78.1359 378.3 78.3999 379.332 78.3999Z" fill="black"/>
<path d="M343.968 56.7639C344.304 56.7639 344.652 56.8599 345.012 57.0519C345.396 57.2199 345.684 57.4479 345.876 57.7359L354.624 71.1999L352.824 71.1279L361.788 57.7359C362.244 57.0879 362.832 56.7639 363.552 56.7639C364.128 56.7639 364.644 56.9679 365.1 57.3759C365.556 57.7839 365.784 58.3119 365.784 58.9599V79.8039C365.784 80.4279 365.58 80.9559 365.172 81.3879C364.764 81.7959 364.224 81.9999 363.552 81.9999C362.88 81.9999 362.328 81.7959 361.896 81.3879C361.488 80.9559 361.284 80.4279 361.284 79.8039V62.8479L362.688 63.1719L355.344 74.3679C355.128 74.6319 354.852 74.8599 354.516 75.0519C354.204 75.2439 353.88 75.3279 353.544 75.3039C353.232 75.3279 352.908 75.2439 352.572 75.0519C352.26 74.8599 351.996 74.6319 351.78 74.3679L344.904 63.4959L345.84 61.5879V79.8039C345.84 80.4279 345.648 80.9559 345.264 81.3879C344.88 81.7959 344.376 81.9999 343.752 81.9999C343.152 81.9999 342.66 81.7959 342.276 81.3879C341.892 80.9559 341.7 80.4279 341.7 79.8039V58.9599C341.7 58.3599 341.916 57.8439 342.348 57.4119C342.804 56.9799 343.344 56.7639 343.968 56.7639Z" fill="black"/>
<path d="M255.92 119.536C255.92 119.952 255.784 120.304 255.512 120.592C255.24 120.864 254.896 121 254.48 121C254.064 121 253.72 120.864 253.448 120.592C253.176 120.304 253.04 119.952 253.04 119.536V109.624C253.04 109.208 253.176 108.864 253.448 108.592C253.72 108.304 254.064 108.16 254.48 108.16C254.896 108.16 255.24 108.304 255.512 108.592C255.784 108.864 255.92 109.208 255.92 109.624V119.536ZM254.456 106.6C253.912 106.6 253.528 106.512 253.304 106.336C253.08 106.16 252.968 105.848 252.968 105.4V104.944C252.968 104.48 253.088 104.168 253.328 104.008C253.584 103.832 253.968 103.744 254.48 103.744C255.04 103.744 255.432 103.832 255.656 104.008C255.88 104.184 255.992 104.496 255.992 104.944V105.4C255.992 105.864 255.872 106.184 255.632 106.36C255.392 106.52 255 106.6 254.456 106.6Z" fill="#484848"/>
<path d="M248.544 104.2C248.928 104.2 249.24 104.328 249.48 104.584C249.72 104.84 249.84 105.16 249.84 105.544V119.536C249.84 119.952 249.696 120.304 249.408 120.592C249.136 120.864 248.792 121 248.376 121C248.168 121 247.952 120.968 247.728 120.904C247.52 120.824 247.36 120.72 247.248 120.592L237.816 108.616L238.44 108.232V119.656C238.44 120.04 238.312 120.36 238.056 120.616C237.816 120.872 237.496 121 237.096 121C236.712 121 236.4 120.872 236.16 120.616C235.92 120.36 235.8 120.04 235.8 119.656V105.664C235.8 105.248 235.936 104.904 236.208 104.632C236.496 104.344 236.848 104.2 237.264 104.2C237.488 104.2 237.72 104.248 237.96 104.344C238.2 104.424 238.376 104.552 238.488 104.728L247.632 116.392L247.224 116.68V105.544C247.224 105.16 247.344 104.84 247.584 104.584C247.824 104.328 248.144 104.2 248.544 104.2Z" fill="#484848"/>
<path d="M173.923 271.4H179.611C179.995 271.4 180.315 271.528 180.571 271.784C180.827 272.04 180.955 272.36 180.955 272.744C180.955 273.112 180.827 273.424 180.571 273.68C180.315 273.92 179.995 274.04 179.611 274.04H173.923C173.539 274.04 173.219 273.912 172.963 273.656C172.707 273.4 172.579 273.08 172.579 272.696C172.579 272.328 172.707 272.024 172.963 271.784C173.219 271.528 173.539 271.4 173.923 271.4ZM176.491 268.4C176.907 268.4 177.243 268.544 177.499 268.832C177.771 269.104 177.907 269.448 177.907 269.864V280.544C177.907 280.768 177.947 280.952 178.027 281.096C178.123 281.24 178.243 281.344 178.387 281.408C178.547 281.472 178.715 281.504 178.891 281.504C179.083 281.504 179.259 281.472 179.419 281.408C179.579 281.328 179.763 281.288 179.971 281.288C180.195 281.288 180.395 281.392 180.571 281.6C180.763 281.808 180.859 282.096 180.859 282.464C180.859 282.912 180.611 283.28 180.115 283.568C179.635 283.856 179.115 284 178.555 284C178.219 284 177.843 283.976 177.427 283.928C177.027 283.864 176.643 283.728 176.275 283.52C175.923 283.296 175.627 282.96 175.387 282.512C175.147 282.064 175.027 281.448 175.027 280.664V269.864C175.027 269.448 175.163 269.104 175.435 268.832C175.723 268.544 176.075 268.4 176.491 268.4Z" fill="#484848"/>
<path d="M170.5 282.536C170.5 282.952 170.356 283.304 170.068 283.592C169.796 283.864 169.452 284 169.036 284C168.636 284 168.3 283.864 168.028 283.592C167.756 283.304 167.62 282.952 167.62 282.536V267.704C167.62 267.288 167.756 266.944 168.028 266.672C168.316 266.384 168.668 266.24 169.084 266.24C169.5 266.24 169.836 266.384 170.092 266.672C170.364 266.944 170.5 267.288 170.5 267.704V282.536Z" fill="#484848"/>
<path d="M159.272 284.24C157.912 284.24 156.728 283.96 155.72 283.4C154.728 282.824 153.96 282.048 153.416 281.072C152.888 280.096 152.624 278.992 152.624 277.76C152.624 276.32 152.912 275.096 153.488 274.088C154.08 273.064 154.848 272.28 155.792 271.736C156.736 271.192 157.736 270.92 158.792 270.92C159.608 270.92 160.376 271.088 161.096 271.424C161.832 271.76 162.48 272.224 163.04 272.816C163.6 273.392 164.04 274.064 164.36 274.832C164.696 275.6 164.864 276.416 164.864 277.28C164.848 277.664 164.696 277.976 164.408 278.216C164.12 278.456 163.784 278.576 163.4 278.576H154.232L153.512 276.176H162.32L161.792 276.656V276.008C161.76 275.544 161.592 275.128 161.288 274.76C161 274.392 160.632 274.104 160.184 273.896C159.752 273.672 159.288 273.56 158.792 273.56C158.312 273.56 157.864 273.624 157.448 273.752C157.032 273.88 156.672 274.096 156.368 274.4C156.064 274.704 155.824 275.112 155.648 275.624C155.472 276.136 155.384 276.784 155.384 277.568C155.384 278.432 155.56 279.168 155.912 279.776C156.28 280.368 156.744 280.824 157.304 281.144C157.88 281.448 158.488 281.6 159.128 281.6C159.72 281.6 160.192 281.552 160.544 281.456C160.896 281.36 161.176 281.248 161.384 281.12C161.608 280.976 161.808 280.856 161.984 280.76C162.272 280.616 162.544 280.544 162.8 280.544C163.152 280.544 163.44 280.664 163.664 280.904C163.904 281.144 164.024 281.424 164.024 281.744C164.024 282.176 163.8 282.568 163.352 282.92C162.936 283.272 162.352 283.584 161.6 283.856C160.848 284.112 160.072 284.24 159.272 284.24Z" fill="#484848"/>
<path d="M135.312 267.176C135.536 267.176 135.768 267.24 136.008 267.368C136.264 267.48 136.456 267.632 136.584 267.824L142.416 276.8L141.216 276.752L147.192 267.824C147.496 267.392 147.888 267.176 148.368 267.176C148.752 267.176 149.096 267.312 149.4 267.584C149.704 267.856 149.856 268.208 149.856 268.64V282.536C149.856 282.952 149.72 283.304 149.448 283.592C149.176 283.864 148.816 284 148.368 284C147.92 284 147.552 283.864 147.264 283.592C146.992 283.304 146.856 282.952 146.856 282.536V271.232L147.792 271.448L142.896 278.912C142.752 279.088 142.568 279.24 142.344 279.368C142.136 279.496 141.92 279.552 141.696 279.536C141.488 279.552 141.272 279.496 141.048 279.368C140.84 279.24 140.664 279.088 140.52 278.912L135.936 271.664L136.56 270.392V282.536C136.56 282.952 136.432 283.304 136.176 283.592C135.92 283.864 135.584 284 135.168 284C134.768 284 134.44 283.864 134.184 283.592C133.928 283.304 133.8 282.952 133.8 282.536V268.64C133.8 268.24 133.944 267.896 134.232 267.608C134.536 267.32 134.896 267.176 135.312 267.176Z" fill="#484848"/>
<path d="M421.399 269.4H427.087C427.471 269.4 427.791 269.528 428.047 269.784C428.303 270.04 428.431 270.36 428.431 270.744C428.431 271.112 428.303 271.424 428.047 271.68C427.791 271.92 427.471 272.04 427.087 272.04H421.399C421.015 272.04 420.695 271.912 420.439 271.656C420.183 271.4 420.055 271.08 420.055 270.696C420.055 270.328 420.183 270.024 420.439 269.784C420.695 269.528 421.015 269.4 421.399 269.4ZM423.967 266.4C424.383 266.4 424.719 266.544 424.975 266.832C425.247 267.104 425.383 267.448 425.383 267.864V278.544C425.383 278.768 425.423 278.952 425.503 279.096C425.599 279.24 425.719 279.344 425.863 279.408C426.023 279.472 426.191 279.504 426.367 279.504C426.559 279.504 426.735 279.472 426.895 279.408C427.055 279.328 427.239 279.288 427.447 279.288C427.671 279.288 427.871 279.392 428.047 279.6C428.239 279.808 428.335 280.096 428.335 280.464C428.335 280.912 428.087 281.28 427.591 281.568C427.111 281.856 426.591 282 426.031 282C425.695 282 425.319 281.976 424.903 281.928C424.503 281.864 424.119 281.728 423.751 281.52C423.399 281.296 423.103 280.96 422.863 280.512C422.623 280.064 422.503 279.448 422.503 278.664V267.864C422.503 267.448 422.639 267.104 422.911 266.832C423.199 266.544 423.551 266.4 423.967 266.4Z" fill="#484848"/>
<path d="M408.933 280.008C408.773 279.784 408.701 279.496 408.717 279.144C408.733 278.792 408.941 278.488 409.341 278.232C409.597 278.072 409.869 278.008 410.157 278.04C410.445 278.056 410.725 278.2 410.997 278.472C411.461 278.936 411.949 279.296 412.461 279.552C412.973 279.808 413.613 279.936 414.381 279.936C414.621 279.92 414.885 279.888 415.173 279.84C415.461 279.776 415.709 279.648 415.917 279.456C416.141 279.248 416.253 278.936 416.253 278.52C416.253 278.168 416.133 277.888 415.893 277.68C415.653 277.472 415.333 277.296 414.933 277.152C414.549 277.008 414.117 276.872 413.637 276.744C413.141 276.6 412.629 276.44 412.101 276.264C411.589 276.088 411.117 275.864 410.685 275.592C410.253 275.304 409.901 274.928 409.629 274.464C409.357 274 409.221 273.416 409.221 272.712C409.221 271.912 409.445 271.232 409.893 270.672C410.341 270.112 410.917 269.68 411.621 269.376C412.341 269.072 413.093 268.92 413.877 268.92C414.373 268.92 414.893 268.984 415.437 269.112C415.981 269.224 416.501 269.416 416.997 269.688C417.493 269.944 417.909 270.288 418.245 270.72C418.421 270.96 418.525 271.248 418.557 271.584C418.589 271.92 418.437 272.224 418.101 272.496C417.861 272.688 417.581 272.776 417.261 272.76C416.941 272.728 416.677 272.616 416.469 272.424C416.197 272.072 415.829 271.792 415.365 271.584C414.917 271.376 414.397 271.272 413.805 271.272C413.565 271.272 413.301 271.304 413.013 271.368C412.741 271.416 412.501 271.536 412.293 271.728C412.085 271.904 411.981 272.192 411.981 272.592C411.981 272.96 412.101 273.256 412.341 273.48C412.581 273.688 412.901 273.864 413.301 274.008C413.717 274.136 414.157 274.264 414.621 274.392C415.101 274.52 415.589 274.672 416.085 274.848C416.581 275.024 417.037 275.256 417.453 275.544C417.869 275.832 418.205 276.208 418.461 276.672C418.717 277.12 418.845 277.696 418.845 278.4C418.845 279.216 418.605 279.912 418.125 280.488C417.645 281.064 417.045 281.504 416.325 281.808C415.605 282.096 414.869 282.24 414.117 282.24C413.173 282.24 412.229 282.08 411.285 281.76C410.341 281.424 409.557 280.84 408.933 280.008Z" fill="#484848"/>
<path d="M405.119 268.92C405.535 268.92 405.879 269.056 406.151 269.328C406.423 269.6 406.559 269.952 406.559 270.384V280.536C406.559 280.952 406.423 281.304 406.151 281.592C405.879 281.864 405.535 282 405.119 282C404.703 282 404.359 281.864 404.087 281.592C403.815 281.304 403.679 280.952 403.679 280.536V279.36L404.207 279.576C404.207 279.784 404.095 280.04 403.871 280.344C403.647 280.632 403.343 280.92 402.959 281.208C402.575 281.496 402.119 281.744 401.591 281.952C401.079 282.144 400.519 282.24 399.911 282.24C398.807 282.24 397.807 281.96 396.911 281.4C396.015 280.824 395.303 280.04 394.775 279.048C394.263 278.04 394.007 276.888 394.007 275.592C394.007 274.28 394.263 273.128 394.775 272.136C395.303 271.128 396.007 270.344 396.887 269.784C397.767 269.208 398.743 268.92 399.815 268.92C400.503 268.92 401.135 269.024 401.711 269.232C402.287 269.44 402.783 269.704 403.199 270.024C403.631 270.344 403.959 270.672 404.183 271.008C404.423 271.328 404.543 271.6 404.543 271.824L403.679 272.136V270.384C403.679 269.968 403.815 269.624 404.087 269.352C404.359 269.064 404.703 268.92 405.119 268.92ZM400.271 279.6C400.975 279.6 401.591 279.424 402.119 279.072C402.647 278.72 403.055 278.24 403.343 277.632C403.647 277.024 403.799 276.344 403.799 275.592C403.799 274.824 403.647 274.136 403.343 273.528C403.055 272.92 402.647 272.44 402.119 272.088C401.591 271.736 400.975 271.56 400.271 271.56C399.583 271.56 398.975 271.736 398.447 272.088C397.919 272.44 397.503 272.92 397.199 273.528C396.911 274.136 396.767 274.824 396.767 275.592C396.767 276.344 396.911 277.024 397.199 277.632C397.503 278.24 397.919 278.72 398.447 279.072C398.975 279.424 399.583 279.6 400.271 279.6Z" fill="#484848"/>
<path d="M391.56 266.016C391.976 266.224 392.216 266.552 392.28 267C392.36 267.448 392.248 267.856 391.944 268.224C391.736 268.512 391.464 268.672 391.128 268.704C390.808 268.736 390.48 268.672 390.144 268.512C389.76 268.336 389.352 268.2 388.92 268.104C388.504 268.008 388.064 267.96 387.6 267.96C386.736 267.96 385.96 268.096 385.272 268.368C384.6 268.64 384.024 269.032 383.544 269.544C383.064 270.04 382.696 270.632 382.44 271.32C382.2 272.008 382.08 272.768 382.08 273.6C382.08 274.576 382.216 275.424 382.488 276.144C382.776 276.864 383.168 277.464 383.664 277.944C384.16 278.424 384.744 278.784 385.416 279.024C386.088 279.248 386.816 279.36 387.6 279.36C388.032 279.36 388.464 279.32 388.896 279.24C389.328 279.16 389.744 279.016 390.144 278.808C390.48 278.648 390.808 278.592 391.128 278.64C391.464 278.688 391.744 278.856 391.968 279.144C392.288 279.544 392.4 279.96 392.304 280.392C392.224 280.808 391.984 281.112 391.584 281.304C391.168 281.512 390.736 281.688 390.288 281.832C389.856 281.96 389.416 282.056 388.968 282.12C388.52 282.2 388.064 282.24 387.6 282.24C386.448 282.24 385.352 282.056 384.312 281.688C383.288 281.32 382.368 280.776 381.552 280.056C380.752 279.336 380.12 278.44 379.656 277.368C379.192 276.28 378.96 275.024 378.96 273.6C378.96 272.368 379.168 271.232 379.584 270.192C380.016 269.152 380.616 268.256 381.384 267.504C382.168 266.736 383.088 266.144 384.144 265.728C385.2 265.296 386.352 265.08 387.6 265.08C388.304 265.08 388.992 265.16 389.664 265.32C390.336 265.48 390.968 265.712 391.56 266.016Z" fill="#484848"/>
<path d="M695.922 280.536C695.922 280.952 695.778 281.304 695.49 281.592C695.218 281.864 694.874 282 694.458 282C694.058 282 693.722 281.864 693.45 281.592C693.178 281.304 693.042 280.952 693.042 280.536V265.704C693.042 265.288 693.178 264.944 693.45 264.672C693.738 264.384 694.09 264.24 694.506 264.24C694.922 264.24 695.258 264.384 695.514 264.672C695.786 264.944 695.922 265.288 695.922 265.704V280.536Z" fill="#484848"/>
<path d="M688.244 268.92C688.66 268.92 689.004 269.056 689.276 269.328C689.548 269.6 689.684 269.952 689.684 270.384V280.536C689.684 280.952 689.548 281.304 689.276 281.592C689.004 281.864 688.66 282 688.244 282C687.828 282 687.484 281.864 687.212 281.592C686.94 281.304 686.804 280.952 686.804 280.536V279.36L687.332 279.576C687.332 279.784 687.22 280.04 686.996 280.344C686.772 280.632 686.468 280.92 686.084 281.208C685.7 281.496 685.244 281.744 684.716 281.952C684.204 282.144 683.644 282.24 683.036 282.24C681.932 282.24 680.932 281.96 680.036 281.4C679.14 280.824 678.428 280.04 677.9 279.048C677.388 278.04 677.132 276.888 677.132 275.592C677.132 274.28 677.388 273.128 677.9 272.136C678.428 271.128 679.132 270.344 680.012 269.784C680.892 269.208 681.868 268.92 682.94 268.92C683.628 268.92 684.26 269.024 684.836 269.232C685.412 269.44 685.908 269.704 686.324 270.024C686.756 270.344 687.084 270.672 687.308 271.008C687.548 271.328 687.668 271.6 687.668 271.824L686.804 272.136V270.384C686.804 269.968 686.94 269.624 687.212 269.352C687.484 269.064 687.828 268.92 688.244 268.92ZM683.396 279.6C684.1 279.6 684.716 279.424 685.244 279.072C685.772 278.72 686.18 278.24 686.468 277.632C686.772 277.024 686.924 276.344 686.924 275.592C686.924 274.824 686.772 274.136 686.468 273.528C686.18 272.92 685.772 272.44 685.244 272.088C684.716 271.736 684.1 271.56 683.396 271.56C682.708 271.56 682.1 271.736 681.572 272.088C681.044 272.44 680.628 272.92 680.324 273.528C680.036 274.136 679.892 274.824 679.892 275.592C679.892 276.344 680.036 277.024 680.324 277.632C680.628 278.24 681.044 278.72 681.572 279.072C682.1 279.424 682.708 279.6 683.396 279.6Z" fill="#484848"/>
<path d="M669.53 282.24C668.17 282.24 666.986 281.96 665.978 281.4C664.986 280.824 664.218 280.048 663.674 279.072C663.146 278.096 662.882 276.992 662.882 275.76C662.882 274.32 663.17 273.096 663.746 272.088C664.338 271.064 665.106 270.28 666.05 269.736C666.994 269.192 667.994 268.92 669.05 268.92C669.866 268.92 670.634 269.088 671.354 269.424C672.09 269.76 672.738 270.224 673.298 270.816C673.858 271.392 674.298 272.064 674.618 272.832C674.954 273.6 675.122 274.416 675.122 275.28C675.106 275.664 674.954 275.976 674.666 276.216C674.378 276.456 674.042 276.576 673.658 276.576H664.49L663.77 274.176H672.578L672.05 274.656V274.008C672.018 273.544 671.85 273.128 671.546 272.76C671.258 272.392 670.89 272.104 670.442 271.896C670.01 271.672 669.546 271.56 669.05 271.56C668.57 271.56 668.122 271.624 667.706 271.752C667.29 271.88 666.93 272.096 666.626 272.4C666.322 272.704 666.082 273.112 665.906 273.624C665.73 274.136 665.642 274.784 665.642 275.568C665.642 276.432 665.818 277.168 666.17 277.776C666.538 278.368 667.002 278.824 667.562 279.144C668.138 279.448 668.746 279.6 669.386 279.6C669.978 279.6 670.45 279.552 670.802 279.456C671.154 279.36 671.434 279.248 671.642 279.12C671.866 278.976 672.066 278.856 672.242 278.76C672.53 278.616 672.802 278.544 673.058 278.544C673.41 278.544 673.698 278.664 673.922 278.904C674.162 279.144 674.282 279.424 674.282 279.744C674.282 280.176 674.058 280.568 673.61 280.92C673.194 281.272 672.61 281.584 671.858 281.856C671.106 282.112 670.33 282.24 669.53 282.24Z" fill="#484848"/>
<path d="M656.049 268.92C657.233 268.92 658.129 269.168 658.737 269.664C659.361 270.16 659.785 270.824 660.009 271.656C660.249 272.472 660.369 273.384 660.369 274.392V280.536C660.369 280.952 660.233 281.304 659.961 281.592C659.689 281.864 659.345 282 658.929 282C658.513 282 658.169 281.864 657.897 281.592C657.625 281.304 657.489 280.952 657.489 280.536V274.392C657.489 273.864 657.417 273.392 657.273 272.976C657.145 272.544 656.905 272.2 656.553 271.944C656.201 271.688 655.697 271.56 655.041 271.56C654.401 271.56 653.857 271.688 653.409 271.944C652.977 272.2 652.641 272.544 652.401 272.976C652.177 273.392 652.065 273.864 652.065 274.392V280.536C652.065 280.952 651.929 281.304 651.657 281.592C651.385 281.864 651.041 282 650.625 282C650.209 282 649.865 281.864 649.593 281.592C649.321 281.304 649.185 280.952 649.185 280.536V270.624C649.185 270.208 649.321 269.864 649.593 269.592C649.865 269.304 650.209 269.16 650.625 269.16C651.041 269.16 651.385 269.304 651.657 269.592C651.929 269.864 652.065 270.208 652.065 270.624V271.656L651.705 271.584C651.849 271.312 652.057 271.024 652.329 270.72C652.601 270.4 652.921 270.104 653.289 269.832C653.657 269.56 654.073 269.344 654.537 269.184C655.001 269.008 655.505 268.92 656.049 268.92Z" fill="#484848"/>
<path d="M641.752 268.92C642.936 268.92 643.832 269.168 644.44 269.664C645.064 270.16 645.488 270.824 645.712 271.656C645.952 272.472 646.072 273.384 646.072 274.392V280.536C646.072 280.952 645.936 281.304 645.664 281.592C645.392 281.864 645.048 282 644.632 282C644.216 282 643.872 281.864 643.6 281.592C643.328 281.304 643.192 280.952 643.192 280.536V274.392C643.192 273.864 643.12 273.392 642.976 272.976C642.848 272.544 642.608 272.2 642.256 271.944C641.904 271.688 641.4 271.56 640.744 271.56C640.104 271.56 639.56 271.688 639.112 271.944C638.68 272.2 638.344 272.544 638.104 272.976C637.88 273.392 637.768 273.864 637.768 274.392V280.536C637.768 280.952 637.632 281.304 637.36 281.592C637.088 281.864 636.744 282 636.328 282C635.912 282 635.568 281.864 635.296 281.592C635.024 281.304 634.888 280.952 634.888 280.536V270.624C634.888 270.208 635.024 269.864 635.296 269.592C635.568 269.304 635.912 269.16 636.328 269.16C636.744 269.16 637.088 269.304 637.36 269.592C637.632 269.864 637.768 270.208 637.768 270.624V271.656L637.408 271.584C637.552 271.312 637.76 271.024 638.032 270.72C638.304 270.4 638.624 270.104 638.992 269.832C639.36 269.56 639.776 269.344 640.24 269.184C640.704 269.008 641.208 268.92 641.752 268.92Z" fill="#484848"/>
<path d="M625.968 268.968L620.784 281.16C620.672 281.464 620.496 281.704 620.256 281.88C620.032 282.04 619.784 282.12 619.512 282.12C619.08 282.12 618.76 282 618.552 281.76C618.344 281.52 618.24 281.224 618.24 280.872C618.24 280.728 618.264 280.576 618.312 280.416L624.288 266.064C624.416 265.744 624.608 265.496 624.864 265.32C625.136 265.144 625.424 265.072 625.728 265.104C626.016 265.104 626.28 265.192 626.52 265.368C626.776 265.528 626.96 265.76 627.072 266.064L632.976 280.128C633.056 280.336 633.096 280.528 633.096 280.704C633.096 281.136 632.952 281.48 632.664 281.736C632.392 281.992 632.088 282.12 631.752 282.12C631.464 282.12 631.2 282.032 630.96 281.856C630.736 281.68 630.56 281.44 630.432 281.136L625.272 269.112L625.968 268.968ZM621.528 278.232L622.848 275.472H629.328L629.784 278.232H621.528Z" fill="#484848"/>
<path d="M224.384 148.733C224.427 149.284 224.016 149.765 223.465 149.807L214.491 150.497C213.94 150.539 213.46 150.128 213.418 149.577L212.727 140.604C212.684 140.053 213.097 139.572 213.647 139.53C214.198 139.487 214.679 139.9 214.721 140.45L215.227 147.016L228.655 131.349C229.014 130.93 229.646 130.881 230.065 131.24C230.485 131.6 230.533 132.232 230.174 132.651L216.745 148.318L223.311 147.813C223.862 147.771 224.342 148.183 224.384 148.733Z" fill="#484848"/>
<path d="M177.768 110.191C178.033 110.675 177.856 111.283 177.372 111.548L169.481 115.877C168.997 116.142 168.389 115.965 168.123 115.481L163.795 107.59C163.529 107.106 163.706 106.498 164.19 106.232C164.674 105.967 165.283 106.144 165.548 106.628L168.716 112.403L174.454 92.7205C174.608 92.1903 175.163 91.886 175.694 92.0406C176.224 92.1951 176.529 92.7497 176.374 93.2798L170.636 112.962L176.41 109.795C176.894 109.529 177.502 109.707 177.768 110.191Z" fill="#484848"/>
<path d="M119.81 135.622C119.728 136.168 119.219 136.543 118.673 136.461L109.773 135.117C109.227 135.034 108.852 134.524 108.934 133.978C109.017 133.432 109.526 133.057 110.072 133.139L116.585 134.122L105.132 118.594C104.804 118.149 104.899 117.523 105.343 117.195C105.788 116.867 106.414 116.962 106.742 117.407L118.194 132.935L119.178 126.424C119.261 125.878 119.77 125.502 120.316 125.585C120.862 125.667 121.238 126.177 121.156 126.723L119.81 135.622Z" fill="#484848"/>
<path d="M722 308V312H80V308H722ZM755 275V68C755 49.7746 740.225 35 722 35H80C61.7746 35 47 49.7746 47 68V275C47 293.225 61.7746 308 80 308V312L79.0449 311.988C59.0518 311.482 43 295.115 43 275V68C43 47.8848 59.0518 31.5183 79.0449 31.0117L80 31H722C742.435 31 759 47.5655 759 68V275L758.988 275.955C758.482 295.948 742.115 312 722 312V308C740.225 308 755 293.225 755 275Z" fill="#B5B5B5"/>
</svg>
