<svg width="716" height="281" viewBox="0 0 716 281" fill="none" xmlns="http://www.w3.org/2000/svg">
<path d="M165.15 158.526C165.525 165.218 165.508 170.142 166.369 170.391C169.151 171.194 177.084 157.211 177.469 157.895C182.829 167.411 173.469 202.395 157.469 211.395C132.809 225.267 87.7249 228.491 70.6873 203.92C65.4569 196.377 61.7072 186.434 61.1297 177.212C59.6725 153.939 70.7566 134.333 81.1718 114.424C84.2462 108.547 84.5426 108.134 84.8354 113.106C85.1281 118.078 85.4086 128.13 85.6568 133.452C85.9051 138.774 86.1845 139.642 86.3271 139.452C96.7104 125.668 101.997 124.857 103.969 107.832C105.073 98.3046 99.3233 85.895 102.384 74.3867C102.773 72.9234 104.573 75.6337 108.658 82.1658C112.742 88.698 119.306 98.9099 122.988 104.397C126.671 109.883 127.449 110.623 128.103 110.968C128.757 111.313 129.376 111.352 129.65 110.92C130.427 109.695 133.652 102.192 133.942 103.073C135.405 107.521 137.187 117.536 141.232 121.679C149.93 130.589 164.396 145.091 165.15 158.526Z" fill="#E78582"/>
<path d="M107.969 193.395C107.969 197.813 104.387 201.395 99.9691 201.395C95.5508 201.395 91.9691 197.813 91.9691 193.395C91.9691 188.977 95.5508 185.395 99.9691 185.395C104.387 185.395 107.969 188.977 107.969 193.395Z" fill="#FFEF76"/>
<path d="M119.969 177.395C119.969 181.813 116.387 185.395 111.969 185.395C107.551 185.395 103.969 181.813 103.969 177.395C103.969 172.977 107.551 169.395 111.969 169.395C116.387 169.395 119.969 172.977 119.969 177.395Z" fill="#F0F0F0"/>
<path d="M133.969 193.395C133.969 197.813 130.387 201.395 125.969 201.395C121.551 201.395 117.969 197.813 117.969 193.395C117.969 188.977 121.551 185.395 125.969 185.395C130.387 185.395 133.969 188.977 133.969 193.395Z" fill="#FCAF6C"/>
<path d="M155.969 176.395C155.969 180.813 152.388 184.395 147.969 184.395C143.551 184.395 139.969 180.813 139.969 176.395C139.969 171.977 143.551 168.395 147.969 168.395C152.388 168.395 155.969 171.977 155.969 176.395Z" fill="#F0F0F0"/>
<path d="M91.9691 176.395C91.9691 180.813 88.3874 184.395 83.9691 184.395C79.5508 184.395 75.9691 180.813 75.9691 176.395C75.9691 171.977 79.5508 168.395 83.9691 168.395C88.3874 168.395 91.9691 171.977 91.9691 176.395Z" fill="#FCAF6C"/>
<path d="M137.969 162.395C137.969 166.813 134.387 170.395 129.969 170.395C125.551 170.395 121.969 166.813 121.969 162.395C121.969 157.977 125.551 154.395 129.969 154.395C134.387 154.395 137.969 157.977 137.969 162.395Z" fill="#FFEF76"/>
<path d="M109.969 160.395C109.969 164.813 106.387 168.395 101.969 168.395C97.5508 168.395 93.9691 164.813 93.9691 160.395C93.9691 155.977 97.5508 152.395 101.969 152.395C106.387 152.395 109.969 155.977 109.969 160.395Z" fill="#FFEF76"/>
<path d="M239.787 146.787C240.959 145.616 242.858 145.616 244.029 146.787L263.121 165.879C264.293 167.05 264.293 168.95 263.121 170.121L244.029 189.213C242.858 190.384 240.959 190.384 239.787 189.213C238.616 188.041 238.616 186.142 239.787 184.971L253.758 171H209C207.343 171 206 169.657 206 168C206 166.343 207.343 165 209 165H253.758L239.787 151.029C238.616 149.858 238.616 147.959 239.787 146.787Z" fill="#484848"/>
<path d="M508.787 148.787C509.959 147.616 511.858 147.616 513.029 148.787L532.121 167.879C533.293 169.05 533.293 170.95 532.121 172.121L513.029 191.213C511.858 192.384 509.959 192.384 508.787 191.213C507.616 190.041 507.616 188.142 508.787 186.971L522.758 173H478C476.343 173 475 171.657 475 170C475 168.343 476.343 167 478 167H522.758L508.787 153.029C507.616 151.858 507.616 149.959 508.787 148.787Z" fill="#484848"/>
<path d="M400.022 123.684C401.52 123.684 402.75 124.04 403.771 124.605C404.489 125.002 405.051 125.481 405.424 125.823L405.854 126.225L405.962 126.352C406.406 126.874 406.875 127.516 407.271 128.461C407.641 129.347 407.901 130.387 408.104 131.681C408.453 133.914 408.685 137.29 408.834 142.686L408.893 145.125V145.165C408.991 157.926 408.996 182.444 409 207.683C409 209.34 407.658 210.684 406.001 210.684C404.344 210.685 403.001 209.342 403 207.685C402.996 182.458 402.992 157.994 402.894 145.251L402.835 142.824C402.687 137.496 402.464 134.451 402.176 132.608C402.014 131.575 401.85 131.053 401.735 130.778C401.664 130.607 401.598 130.497 401.488 130.358C401.172 130.064 401.036 129.949 400.868 129.856C400.745 129.788 400.515 129.684 400.023 129.684C392.044 129.686 388.792 132.001 383.1 133.775C377.608 135.487 370.952 137.621 365.685 141.344C364.819 141.955 363.786 142.87 362.444 144.067C361.157 145.216 359.653 146.56 358.013 147.826C354.782 150.319 350.605 152.845 345.714 152.994C336.959 153.26 332.533 151.862 327.42 149.992C319.839 147.219 313.627 147.654 309.13 148.746C306.864 149.296 305.006 150.021 303.578 150.629C302.969 150.888 302.142 151.258 301.695 151.444C301.43 151.555 301.129 151.674 300.835 151.769C300.602 151.844 300.093 152 299.5 152C297.843 152 296.5 150.657 296.5 149C296.5 147.492 297.613 146.244 299.062 146.032C299.128 146.008 299.233 145.97 299.386 145.906C299.911 145.687 300.331 145.49 301.228 145.108C302.811 144.434 305.004 143.574 307.714 142.916C313.169 141.591 320.611 141.113 329.481 144.357C334.133 146.059 337.774 147.233 345.531 146.997C348.49 146.907 351.41 145.343 354.348 143.076C355.791 141.962 357.139 140.759 358.45 139.59C359.707 138.469 361.018 137.294 362.222 136.444C368.379 132.093 375.941 129.721 381.314 128.047C385.83 126.639 390.826 123.686 400.022 123.684Z" fill="#F6B769"/>
<path d="M359 215.5C359 211.358 362.358 208 366.5 208H444.5C448.642 208 452 211.358 452 215.5C452 219.642 448.642 223 444.5 223H366.5C362.358 223 359 219.642 359 215.5Z" fill="#F6B769"/>
<path d="M568 207.5C568 203.358 571.358 200 575.5 200H653.5C657.642 200 661 203.358 661 207.5C661 211.642 657.642 215 653.5 215H575.5C571.358 215 568 211.642 568 207.5Z" fill="#F6B769"/>
<path d="M588.025 132.621C588.787 131.821 590.054 131.79 590.853 132.552C591.653 133.313 591.684 134.579 590.923 135.379C585.898 140.656 584.133 145.133 584.334 149.064C584.537 153.033 586.768 156.966 590.889 161.086C595.021 165.218 596.27 172.368 595.012 178.762C593.739 185.229 589.764 191.616 582.609 193.905C581.557 194.242 580.431 193.661 580.095 192.609C579.758 191.557 580.339 190.431 581.391 190.095C586.735 188.384 589.998 183.521 591.087 177.988C592.19 172.382 590.927 166.782 588.06 163.914C583.621 159.476 580.616 154.658 580.34 149.268C580.062 143.837 582.577 138.343 588.025 132.621ZM616.025 132.621C616.787 131.821 618.054 131.79 618.854 132.552C619.653 133.313 619.684 134.579 618.923 135.379C613.898 140.656 612.133 145.133 612.334 149.064C612.537 153.033 614.768 156.966 618.889 161.086C623.021 165.218 624.27 172.368 623.012 178.762C621.739 185.229 617.764 191.616 610.609 193.905C609.557 194.242 608.431 193.661 608.095 192.609C607.758 191.557 608.339 190.431 609.391 190.095C614.736 188.384 617.998 183.521 619.087 177.988C620.19 172.382 618.927 166.782 616.06 163.914C611.621 159.476 608.616 154.658 608.34 149.268C608.062 143.837 610.577 138.343 616.025 132.621ZM642.025 132.621C642.787 131.821 644.054 131.79 644.854 132.552C645.653 133.313 645.684 134.579 644.923 135.379C639.898 140.656 638.133 145.133 638.334 149.064C638.537 153.033 640.768 156.966 644.889 161.086C649.021 165.218 650.27 172.368 649.012 178.762C647.739 185.229 643.764 191.616 636.609 193.905C635.557 194.242 634.431 193.661 634.095 192.609C633.758 191.557 634.339 190.431 635.391 190.095C640.736 188.384 643.998 183.521 645.087 177.988C646.19 172.382 644.927 166.782 642.06 163.914C637.621 159.476 634.616 154.658 634.34 149.268C634.062 143.837 636.577 138.343 642.025 132.621Z" fill="#FF9999"/>
<path d="M373 168.684C373 179.73 357.106 188.684 337.5 188.684C317.894 188.684 302 179.73 302 168.684C302 157.639 317.894 148.684 337.5 148.684C357.106 148.684 373 157.639 373 168.684Z" fill="#F6B769"/>
<path d="M381.381 145.009C385.037 151.631 379.77 161.542 369.619 167.146C359.467 172.749 348.274 171.923 344.619 165.301C340.963 158.679 346.23 148.768 356.381 143.164C366.533 137.561 377.726 138.387 381.381 145.009Z" fill="#F6B769"/>
<path d="M391.626 132.563C392.937 136.118 386.458 141.781 377.155 145.212C367.851 148.642 359.247 148.542 357.936 144.987C356.625 141.432 363.104 135.769 372.408 132.339C381.711 128.908 390.316 129.009 391.626 132.563Z" fill="#F6B769"/>
<path d="M405.818 129.769C406.993 132.956 402.809 137.433 396.473 139.769C390.137 142.106 384.048 141.417 382.873 138.231C381.698 135.044 385.882 130.567 392.218 128.231C398.554 125.894 404.643 126.583 405.818 129.769Z" fill="#F6B769"/>
<path d="M365.614 182.848C362.346 193.414 346.148 197.789 329.433 192.62C312.719 187.452 301.817 174.697 305.084 164.131C308.351 153.565 324.55 149.19 341.265 154.358C357.979 159.527 368.881 172.282 365.614 182.848Z" fill="#F6B769"/>
<path d="M357.445 175.848C354.178 186.414 337.979 190.789 321.265 185.62C304.55 180.452 293.649 167.697 296.916 157.131C300.183 146.565 316.381 142.19 333.096 147.358C349.811 152.527 360.712 165.282 357.445 175.848Z" fill="#F6B769"/>
<path d="M358.985 192.437C353.454 198.753 341.366 197.214 331.985 189C322.605 180.785 319.484 169.006 325.015 162.69C330.546 156.373 342.634 157.912 352.015 166.126C361.395 174.341 364.516 186.12 358.985 192.437Z" fill="#F6B769"/>
<path d="M330 158.684C330 167.521 322.389 174.684 313 174.684C303.611 174.684 296 167.521 296 158.684C296 149.848 303.611 142.684 313 142.684C322.389 142.684 330 149.848 330 158.684Z" fill="#F6B769"/>
<path d="M331.769 101.944C333.834 101.16 336.144 102.2 336.928 104.265C337.711 106.331 336.673 108.641 334.607 109.425C324.786 113.152 314.27 122.666 307.624 134.196C300.961 145.755 298.739 158.307 303.696 168.343C306.919 174.869 314.807 181.251 324.343 185.932C333.827 190.589 343.96 193.081 350.857 192.633C353.091 192.487 355.957 190.642 359.42 186.089C362.749 181.711 365.97 175.712 369.135 169.13C370.706 165.862 372.237 162.509 373.746 159.198C375.249 155.902 376.735 152.637 378.19 149.608C381.022 143.715 384 138.131 387.149 134.837L387.318 134.67C388.171 133.876 389.129 133.665 389.288 133.626C389.671 133.531 390.029 133.49 390.276 133.468C390.788 133.424 391.361 133.419 391.886 133.426C392.956 133.439 394.317 133.511 395.608 133.578C396.947 133.647 398.25 133.714 399.352 133.734C400.606 133.757 401.101 133.702 401.102 133.703C403.254 133.207 405.401 134.549 405.897 136.702C406.394 138.855 405.051 141.003 402.898 141.499C401.787 141.755 400.302 141.753 399.203 141.733C397.943 141.71 396.499 141.635 395.194 141.567C393.959 141.503 392.866 141.448 392.017 141.43C390.092 143.872 387.899 147.873 385.4 153.073C383.987 156.014 382.537 159.199 381.025 162.516C379.52 165.819 377.957 169.244 376.345 172.596C373.143 179.255 369.636 185.872 365.788 190.931C362.074 195.815 357.311 200.23 351.376 200.616C342.584 201.187 331.013 198.119 320.816 193.113C310.671 188.132 300.901 180.749 296.523 171.886C289.9 158.476 293.354 142.934 300.693 130.201C308.05 117.438 319.864 106.462 331.769 101.944Z" fill="black"/>
<path d="M147.695 101.008C148.55 99.2981 151.483 95.7658 152.132 93.9254C153.825 89.2695 152.185 81.0161 146.533 78.498C144.435 77.5634 141.197 83.1951 144.164 87.0604C147.132 90.9256 147.695 98.0604 147.695 101.008Z" fill="#E78582"/>
<path d="M65.1349 65.1599C65.5509 65.1599 65.8949 65.3039 66.1669 65.5919C66.4389 65.8639 66.5749 66.2079 66.5749 66.6239V72.7199C66.5749 74.4159 66.1029 75.7599 65.1589 76.7519C64.2149 77.7439 62.8549 78.2399 61.0789 78.2399C59.3029 78.2399 57.9429 77.7439 56.9989 76.7519C56.0709 75.7599 55.6069 74.4159 55.6069 72.7199V66.6239C55.6069 66.2079 55.7429 65.8639 56.0149 65.5919C56.2869 65.3039 56.6309 65.1599 57.0469 65.1599C57.4629 65.1599 57.8069 65.3039 58.0789 65.5919C58.3509 65.8639 58.4869 66.2079 58.4869 66.6239V72.7199C58.4869 73.6959 58.7029 74.4239 59.1349 74.9039C59.5669 75.3679 60.2149 75.5999 61.0789 75.5999C61.9589 75.5999 62.6149 75.3679 63.0469 74.9039C63.4789 74.4239 63.6949 73.6959 63.6949 72.7199V66.6239C63.6949 66.2079 63.8309 65.8639 64.1029 65.5919C64.3749 65.3039 64.7189 65.1599 65.1349 65.1599Z" fill="#484848"/>
<path d="M52.56 62.0161C52.976 62.2241 53.216 62.5521 53.28 63.0001C53.36 63.4481 53.248 63.8561 52.944 64.2241C52.736 64.5121 52.464 64.6721 52.128 64.7041C51.808 64.7361 51.48 64.6721 51.144 64.5121C50.76 64.3361 50.352 64.2001 49.92 64.1041C49.504 64.0081 49.064 63.9601 48.6 63.9601C47.736 63.9601 46.96 64.0961 46.272 64.3681C45.6 64.6401 45.024 65.0321 44.544 65.5441C44.064 66.0401 43.696 66.6321 43.44 67.3201C43.2 68.0081 43.08 68.7681 43.08 69.6001C43.08 70.5761 43.216 71.4241 43.488 72.1441C43.776 72.8641 44.168 73.4641 44.664 73.9441C45.16 74.4241 45.744 74.7841 46.416 75.0241C47.088 75.2481 47.816 75.3601 48.6 75.3601C49.032 75.3601 49.464 75.3201 49.896 75.2401C50.328 75.1601 50.744 75.0161 51.144 74.8081C51.48 74.6481 51.808 74.5921 52.128 74.6401C52.464 74.6881 52.744 74.8561 52.968 75.1441C53.288 75.5441 53.4 75.9601 53.304 76.3921C53.224 76.8081 52.984 77.1121 52.584 77.3041C52.168 77.5121 51.736 77.6881 51.288 77.8321C50.856 77.9601 50.416 78.0561 49.968 78.1201C49.52 78.2001 49.064 78.2401 48.6 78.2401C47.448 78.2401 46.352 78.0561 45.312 77.6881C44.288 77.3201 43.368 76.7761 42.552 76.0561C41.752 75.3361 41.12 74.4401 40.656 73.3681C40.192 72.2801 39.96 71.0241 39.96 69.6001C39.96 68.3681 40.168 67.2321 40.584 66.1921C41.016 65.1521 41.616 64.2561 42.384 63.5041C43.168 62.7361 44.088 62.1441 45.144 61.7281C46.2 61.2961 47.352 61.0801 48.6 61.0801C49.304 61.0801 49.992 61.1601 50.664 61.3201C51.336 61.4801 51.968 61.7121 52.56 62.0161Z" fill="#484848"/>
<path d="M152.182 41.1599C152.598 41.1599 152.942 41.3039 153.214 41.5919C153.486 41.8639 153.622 42.2079 153.622 42.6239V48.7199C153.622 50.4159 153.15 51.7599 152.206 52.7519C151.262 53.7439 149.902 54.2399 148.126 54.2399C146.35 54.2399 144.99 53.7439 144.046 52.7519C143.118 51.7599 142.654 50.4159 142.654 48.7199V42.6239C142.654 42.2079 142.79 41.8639 143.062 41.5919C143.334 41.3039 143.678 41.1599 144.094 41.1599C144.51 41.1599 144.854 41.3039 145.126 41.5919C145.398 41.8639 145.534 42.2079 145.534 42.6239V48.7199C145.534 49.6959 145.75 50.4239 146.182 50.9039C146.614 51.3679 147.262 51.5999 148.126 51.5999C149.006 51.5999 149.662 51.3679 150.094 50.9039C150.526 50.4239 150.742 49.6959 150.742 48.7199V42.6239C150.742 42.2079 150.878 41.8639 151.15 41.5919C151.422 41.3039 151.766 41.1599 152.182 41.1599Z" fill="#484848"/>
<path d="M133.968 40.9681L128.784 53.1601C128.672 53.4641 128.496 53.7041 128.256 53.8801C128.032 54.0401 127.784 54.1201 127.512 54.1201C127.08 54.1201 126.76 54.0001 126.552 53.7601C126.344 53.5201 126.24 53.2241 126.24 52.8721C126.24 52.7281 126.264 52.5761 126.312 52.4161L132.288 38.0641C132.416 37.7441 132.608 37.4961 132.864 37.3201C133.136 37.1441 133.424 37.0721 133.728 37.1041C134.016 37.1041 134.28 37.1921 134.52 37.3681C134.776 37.5281 134.96 37.7601 135.072 38.0641L140.976 52.1281C141.056 52.3361 141.096 52.5281 141.096 52.7041C141.096 53.1361 140.952 53.4801 140.664 53.7361C140.392 53.9921 140.088 54.1201 139.752 54.1201C139.464 54.1201 139.2 54.0321 138.96 53.8561C138.736 53.6801 138.56 53.4401 138.432 53.1361L133.272 41.1121L133.968 40.9681ZM129.528 50.2321L130.848 47.4721H137.328L137.784 50.2321H129.528Z" fill="#484848"/>
<path d="M437.633 48.8041C437.633 49.4281 437.417 49.9561 436.985 50.3881C436.577 50.7961 436.061 51.0001 435.437 51.0001C434.837 51.0001 434.333 50.7961 433.925 50.3881C433.517 49.9561 433.313 49.4281 433.313 48.8041V26.5561C433.313 25.9321 433.517 25.4161 433.925 25.0081C434.357 24.5761 434.885 24.3601 435.509 24.3601C436.133 24.3601 436.637 24.5761 437.021 25.0081C437.429 25.4161 437.633 25.9321 437.633 26.5561V48.8041Z" fill="black"/>
<path d="M426.116 31.3799C426.74 31.3799 427.256 31.5839 427.664 31.9919C428.072 32.3999 428.276 32.9279 428.276 33.5759V48.8039C428.276 49.4279 428.072 49.9559 427.664 50.3879C427.256 50.7959 426.74 50.9999 426.116 50.9999C425.492 50.9999 424.976 50.7959 424.568 50.3879C424.16 49.9559 423.956 49.4279 423.956 48.8039V47.0399L424.748 47.3639C424.748 47.6759 424.58 48.0599 424.244 48.5159C423.908 48.9479 423.452 49.3799 422.876 49.8119C422.3 50.2439 421.616 50.6159 420.824 50.9279C420.056 51.2159 419.216 51.3599 418.304 51.3599C416.648 51.3599 415.148 50.9399 413.804 50.0999C412.46 49.2359 411.392 48.0599 410.6 46.5719C409.832 45.0599 409.448 43.3319 409.448 41.3879C409.448 39.4199 409.832 37.6919 410.6 36.2039C411.392 34.6919 412.448 33.5159 413.768 32.6759C415.088 31.8119 416.552 31.3799 418.16 31.3799C419.192 31.3799 420.14 31.5359 421.004 31.8479C421.868 32.1599 422.612 32.5559 423.236 33.0359C423.884 33.5159 424.376 34.0079 424.712 34.5119C425.072 34.9919 425.252 35.3999 425.252 35.7359L423.956 36.2039V33.5759C423.956 32.9519 424.16 32.4359 424.568 32.0279C424.976 31.5959 425.492 31.3799 426.116 31.3799ZM418.844 47.3999C419.9 47.3999 420.824 47.1359 421.616 46.6079C422.408 46.0799 423.02 45.3599 423.452 44.4479C423.908 43.5359 424.136 42.5159 424.136 41.3879C424.136 40.2359 423.908 39.2039 423.452 38.2919C423.02 37.3799 422.408 36.6599 421.616 36.1319C420.824 35.6039 419.9 35.3399 418.844 35.3399C417.812 35.3399 416.9 35.6039 416.108 36.1319C415.316 36.6599 414.692 37.3799 414.236 38.2919C413.804 39.2039 413.588 40.2359 413.588 41.3879C413.588 42.5159 413.804 43.5359 414.236 44.4479C414.692 45.3599 415.316 46.0799 416.108 46.6079C416.9 47.1359 417.812 47.3999 418.844 47.3999Z" fill="black"/>
<path d="M405.908 48.804C405.908 49.428 405.704 49.956 405.296 50.388C404.888 50.796 404.372 51 403.748 51C403.124 51 402.608 50.796 402.2 50.388C401.792 49.956 401.588 49.428 401.588 48.804V33.936C401.588 33.312 401.792 32.796 402.2 32.388C402.608 31.956 403.124 31.74 403.748 31.74C404.372 31.74 404.888 31.956 405.296 32.388C405.704 32.796 405.908 33.312 405.908 33.936V48.804ZM403.712 29.4C402.896 29.4 402.32 29.268 401.984 29.004C401.648 28.74 401.48 28.272 401.48 27.6V26.916C401.48 26.22 401.66 25.752 402.02 25.512C402.404 25.248 402.98 25.116 403.748 25.116C404.588 25.116 405.176 25.248 405.512 25.512C405.848 25.776 406.016 26.244 406.016 26.916V27.6C406.016 28.296 405.836 28.776 405.476 29.04C405.116 29.28 404.528 29.4 403.712 29.4Z" fill="black"/>
<path d="M388.391 50.9999C387.767 50.9999 387.251 50.7959 386.843 50.3879C386.435 49.9559 386.231 49.4279 386.231 48.8039V33.9359C386.231 33.3119 386.435 32.7959 386.843 32.3879C387.251 31.9559 387.767 31.7399 388.391 31.7399C389.015 31.7399 389.531 31.9559 389.939 32.3879C390.347 32.7959 390.551 33.3119 390.551 33.9359V37.3199L390.299 34.9079C390.563 34.3319 390.899 33.8279 391.307 33.3959C391.739 32.9399 392.219 32.5679 392.747 32.2799C393.275 31.9679 393.839 31.7399 394.439 31.5959C395.039 31.4519 395.639 31.3799 396.239 31.3799C396.959 31.3799 397.559 31.5839 398.039 31.9919C398.543 32.3999 398.795 32.8799 398.795 33.4319C398.795 34.2239 398.591 34.7999 398.183 35.1599C397.775 35.4959 397.331 35.6639 396.851 35.6639C396.395 35.6639 395.975 35.5799 395.591 35.4119C395.231 35.2439 394.811 35.1599 394.331 35.1599C393.899 35.1599 393.455 35.2679 392.999 35.4839C392.567 35.6759 392.159 35.9879 391.775 36.4199C391.415 36.8519 391.115 37.3919 390.875 38.0399C390.659 38.6639 390.551 39.4079 390.551 40.2719V48.8039C390.551 49.4279 390.347 49.9559 389.939 50.3879C389.531 50.7959 389.015 50.9999 388.391 50.9999Z" fill="black"/>
<path d="M374.068 51.3599C372.028 51.3599 370.252 50.9399 368.74 50.0999C367.252 49.2359 366.1 48.0719 365.284 46.6079C364.492 45.1439 364.096 43.4879 364.096 41.6399C364.096 39.4799 364.528 37.6439 365.392 36.1319C366.28 34.5959 367.432 33.4199 368.848 32.6039C370.264 31.7879 371.764 31.3799 373.348 31.3799C374.572 31.3799 375.724 31.6319 376.804 32.1359C377.908 32.6399 378.88 33.3359 379.72 34.2239C380.56 35.0879 381.22 36.0959 381.7 37.2479C382.204 38.3999 382.456 39.6239 382.456 40.9199C382.432 41.4959 382.204 41.9639 381.772 42.3239C381.34 42.6839 380.836 42.8639 380.26 42.8639H366.508L365.428 39.2639H378.64L377.848 39.9839V39.0119C377.8 38.3159 377.548 37.6919 377.092 37.1399C376.66 36.5879 376.108 36.1559 375.436 35.8439C374.788 35.5079 374.092 35.3399 373.348 35.3399C372.628 35.3399 371.956 35.4359 371.332 35.6279C370.708 35.8199 370.168 36.1439 369.712 36.5999C369.256 37.0559 368.896 37.6679 368.632 38.4359C368.368 39.2039 368.236 40.1759 368.236 41.3519C368.236 42.6479 368.5 43.7519 369.028 44.6639C369.58 45.5519 370.276 46.2359 371.116 46.7159C371.98 47.1719 372.892 47.3999 373.852 47.3999C374.74 47.3999 375.448 47.3279 375.976 47.1839C376.504 47.0399 376.924 46.8719 377.236 46.6799C377.572 46.4639 377.872 46.2839 378.136 46.1399C378.568 45.9239 378.976 45.8159 379.36 45.8159C379.888 45.8159 380.32 45.9959 380.656 46.3559C381.016 46.7159 381.196 47.1359 381.196 47.6159C381.196 48.2639 380.86 48.8519 380.188 49.3799C379.564 49.9079 378.688 50.3759 377.56 50.7839C376.432 51.1679 375.268 51.3599 374.068 51.3599Z" fill="black"/>
<path d="M350.658 32.1001H359.19C359.766 32.1001 360.246 32.2921 360.63 32.6761C361.014 33.0601 361.206 33.5401 361.206 34.1161C361.206 34.6681 361.014 35.1361 360.63 35.5201C360.246 35.8801 359.766 36.0601 359.19 36.0601H350.658C350.082 36.0601 349.602 35.8681 349.218 35.4841C348.834 35.1001 348.642 34.6201 348.642 34.0441C348.642 33.4921 348.834 33.0361 349.218 32.6761C349.602 32.2921 350.082 32.1001 350.658 32.1001ZM354.51 27.6001C355.134 27.6001 355.638 27.8161 356.022 28.2481C356.43 28.6561 356.634 29.1721 356.634 29.7961V45.8161C356.634 46.1521 356.694 46.4281 356.814 46.6441C356.958 46.8601 357.138 47.0161 357.354 47.1121C357.594 47.2081 357.846 47.2561 358.11 47.2561C358.398 47.2561 358.662 47.2081 358.902 47.1121C359.142 46.9921 359.418 46.9321 359.73 46.9321C360.066 46.9321 360.366 47.0881 360.63 47.4001C360.918 47.7121 361.062 48.1441 361.062 48.6961C361.062 49.3681 360.69 49.9201 359.946 50.3521C359.226 50.7841 358.446 51.0001 357.606 51.0001C357.102 51.0001 356.538 50.9641 355.914 50.8921C355.314 50.7961 354.738 50.5921 354.186 50.2801C353.658 49.9441 353.214 49.4401 352.854 48.7681C352.494 48.0961 352.314 47.1721 352.314 45.9961V29.7961C352.314 29.1721 352.518 28.6561 352.926 28.2481C353.358 27.8161 353.886 27.6001 354.51 27.6001Z" fill="black"/>
<path d="M343.604 31.3799C344.228 31.3799 344.744 31.5839 345.152 31.9919C345.56 32.3999 345.764 32.9279 345.764 33.5759V48.8039C345.764 49.4279 345.56 49.9559 345.152 50.3879C344.744 50.7959 344.228 50.9999 343.604 50.9999C342.98 50.9999 342.464 50.7959 342.056 50.3879C341.648 49.9559 341.444 49.4279 341.444 48.8039V47.0399L342.236 47.3639C342.236 47.6759 342.068 48.0599 341.732 48.5159C341.396 48.9479 340.94 49.3799 340.364 49.8119C339.788 50.2439 339.104 50.6159 338.312 50.9279C337.544 51.2159 336.704 51.3599 335.792 51.3599C334.136 51.3599 332.636 50.9399 331.292 50.0999C329.948 49.2359 328.88 48.0599 328.088 46.5719C327.32 45.0599 326.936 43.3319 326.936 41.3879C326.936 39.4199 327.32 37.6919 328.088 36.2039C328.88 34.6919 329.936 33.5159 331.256 32.6759C332.576 31.8119 334.04 31.3799 335.648 31.3799C336.68 31.3799 337.628 31.5359 338.492 31.8479C339.356 32.1599 340.1 32.5559 340.724 33.0359C341.372 33.5159 341.864 34.0079 342.2 34.5119C342.56 34.9919 342.74 35.3999 342.74 35.7359L341.444 36.2039V33.5759C341.444 32.9519 341.648 32.4359 342.056 32.0279C342.464 31.5959 342.98 31.3799 343.604 31.3799ZM336.332 47.3999C337.388 47.3999 338.312 47.1359 339.104 46.6079C339.896 46.0799 340.508 45.3599 340.94 44.4479C341.396 43.5359 341.624 42.5159 341.624 41.3879C341.624 40.2359 341.396 39.2039 340.94 38.2919C340.508 37.3799 339.896 36.6599 339.104 36.1319C338.312 35.6039 337.388 35.3399 336.332 35.3399C335.3 35.3399 334.388 35.6039 333.596 36.1319C332.804 36.6599 332.18 37.3799 331.724 38.2919C331.292 39.2039 331.076 40.2359 331.076 41.3879C331.076 42.5159 331.292 43.5359 331.724 44.4479C332.18 45.3599 332.804 46.0799 333.596 46.6079C334.388 47.1359 335.3 47.3999 336.332 47.3999Z" fill="black"/>
<path d="M300.968 25.7639C301.304 25.7639 301.652 25.8599 302.012 26.0519C302.396 26.2199 302.684 26.4479 302.876 26.7359L311.624 40.1999L309.824 40.1279L318.788 26.7359C319.244 26.0879 319.832 25.7639 320.552 25.7639C321.128 25.7639 321.644 25.9679 322.1 26.3759C322.556 26.7839 322.784 27.3119 322.784 27.9599V48.8039C322.784 49.4279 322.58 49.9559 322.172 50.3879C321.764 50.7959 321.224 50.9999 320.552 50.9999C319.88 50.9999 319.328 50.7959 318.896 50.3879C318.488 49.9559 318.284 49.4279 318.284 48.8039V31.8479L319.688 32.1719L312.344 43.3679C312.128 43.6319 311.852 43.8599 311.516 44.0519C311.204 44.2439 310.88 44.3279 310.544 44.3039C310.232 44.3279 309.908 44.2439 309.572 44.0519C309.26 43.8599 308.996 43.6319 308.78 43.3679L301.904 32.4959L302.84 30.5879V48.8039C302.84 49.4279 302.648 49.9559 302.264 50.3879C301.88 50.7959 301.376 50.9999 300.752 50.9999C300.152 50.9999 299.66 50.7959 299.276 50.3879C298.892 49.9559 298.7 49.4279 298.7 48.8039V27.9599C298.7 27.3599 298.916 26.8439 299.348 26.4119C299.804 25.9799 300.344 25.7639 300.968 25.7639Z" fill="black"/>
<path d="M212.92 88.5359C212.92 88.9519 212.784 89.3039 212.512 89.5919C212.24 89.8639 211.896 89.9999 211.48 89.9999C211.064 89.9999 210.72 89.8639 210.448 89.5919C210.176 89.3039 210.04 88.9519 210.04 88.5359V78.6239C210.04 78.2079 210.176 77.8639 210.448 77.5919C210.72 77.3039 211.064 77.1599 211.48 77.1599C211.896 77.1599 212.24 77.3039 212.512 77.5919C212.784 77.8639 212.92 78.2079 212.92 78.6239V88.5359ZM211.456 75.5999C210.912 75.5999 210.528 75.5119 210.304 75.3359C210.08 75.1599 209.968 74.8479 209.968 74.3999V73.9439C209.968 73.4799 210.088 73.1679 210.328 73.0079C210.584 72.8319 210.968 72.7439 211.48 72.7439C212.04 72.7439 212.432 72.8319 212.656 73.0079C212.88 73.1839 212.992 73.4959 212.992 73.9439V74.3999C212.992 74.8639 212.872 75.1839 212.632 75.3599C212.392 75.5199 212 75.5999 211.456 75.5999Z" fill="#484848"/>
<path d="M205.544 73.2C205.928 73.2 206.24 73.328 206.48 73.584C206.72 73.84 206.84 74.16 206.84 74.544V88.5359C206.84 88.9519 206.696 89.3039 206.408 89.5919C206.136 89.8639 205.792 90 205.376 90C205.168 90 204.952 89.968 204.728 89.904C204.52 89.824 204.36 89.7199 204.248 89.5919L194.816 77.616L195.44 77.2319V88.656C195.44 89.04 195.312 89.36 195.056 89.616C194.816 89.872 194.496 90 194.096 90C193.712 90 193.4 89.872 193.16 89.616C192.92 89.36 192.8 89.04 192.8 88.656V74.6639C192.8 74.2479 192.936 73.904 193.208 73.632C193.496 73.344 193.848 73.2 194.264 73.2C194.488 73.2 194.72 73.2479 194.96 73.3439C195.2 73.4239 195.376 73.552 195.488 73.728L204.632 85.392L204.224 85.68V74.544C204.224 74.16 204.344 73.84 204.584 73.584C204.824 73.328 205.144 73.2 205.544 73.2Z" fill="#484848"/>
<path d="M130.923 240.4H136.611C136.995 240.4 137.315 240.528 137.571 240.784C137.827 241.04 137.955 241.36 137.955 241.744C137.955 242.112 137.827 242.424 137.571 242.68C137.315 242.92 136.995 243.04 136.611 243.04H130.923C130.539 243.04 130.219 242.912 129.963 242.656C129.707 242.4 129.579 242.08 129.579 241.696C129.579 241.328 129.707 241.024 129.963 240.784C130.219 240.528 130.539 240.4 130.923 240.4ZM133.491 237.4C133.907 237.4 134.243 237.544 134.499 237.832C134.771 238.104 134.907 238.448 134.907 238.864V249.544C134.907 249.768 134.947 249.952 135.027 250.096C135.123 250.24 135.243 250.344 135.387 250.408C135.547 250.472 135.715 250.504 135.891 250.504C136.083 250.504 136.259 250.472 136.419 250.408C136.579 250.328 136.763 250.288 136.971 250.288C137.195 250.288 137.395 250.392 137.571 250.6C137.763 250.808 137.859 251.096 137.859 251.464C137.859 251.912 137.611 252.28 137.115 252.568C136.635 252.856 136.115 253 135.555 253C135.219 253 134.843 252.976 134.427 252.928C134.027 252.864 133.643 252.728 133.275 252.52C132.923 252.296 132.627 251.96 132.387 251.512C132.147 251.064 132.027 250.448 132.027 249.664V238.864C132.027 238.448 132.163 238.104 132.435 237.832C132.723 237.544 133.075 237.4 133.491 237.4Z" fill="#484848"/>
<path d="M127.5 251.536C127.5 251.952 127.356 252.304 127.068 252.592C126.796 252.864 126.452 253 126.036 253C125.636 253 125.3 252.864 125.028 252.592C124.756 252.304 124.62 251.952 124.62 251.536V236.704C124.62 236.288 124.756 235.944 125.028 235.672C125.316 235.384 125.668 235.24 126.084 235.24C126.5 235.24 126.836 235.384 127.092 235.672C127.364 235.944 127.5 236.288 127.5 236.704V251.536Z" fill="#484848"/>
<path d="M116.272 253.24C114.912 253.24 113.728 252.96 112.72 252.4C111.728 251.824 110.96 251.048 110.416 250.072C109.888 249.096 109.624 247.992 109.624 246.76C109.624 245.32 109.912 244.096 110.488 243.088C111.08 242.064 111.848 241.28 112.792 240.736C113.736 240.192 114.736 239.92 115.792 239.92C116.608 239.92 117.376 240.088 118.096 240.424C118.832 240.76 119.48 241.224 120.04 241.816C120.6 242.392 121.04 243.064 121.36 243.832C121.696 244.6 121.864 245.416 121.864 246.28C121.848 246.664 121.696 246.976 121.408 247.216C121.12 247.456 120.784 247.576 120.4 247.576H111.232L110.512 245.176H119.32L118.792 245.656V245.008C118.76 244.544 118.592 244.128 118.288 243.76C118 243.392 117.632 243.104 117.184 242.896C116.752 242.672 116.288 242.56 115.792 242.56C115.312 242.56 114.864 242.624 114.448 242.752C114.032 242.88 113.672 243.096 113.368 243.4C113.064 243.704 112.824 244.112 112.648 244.624C112.472 245.136 112.384 245.784 112.384 246.568C112.384 247.432 112.56 248.168 112.912 248.776C113.28 249.368 113.744 249.824 114.304 250.144C114.88 250.448 115.488 250.6 116.128 250.6C116.72 250.6 117.192 250.552 117.544 250.456C117.896 250.36 118.176 250.248 118.384 250.12C118.608 249.976 118.808 249.856 118.984 249.76C119.272 249.616 119.544 249.544 119.8 249.544C120.152 249.544 120.44 249.664 120.664 249.904C120.904 250.144 121.024 250.424 121.024 250.744C121.024 251.176 120.8 251.568 120.352 251.92C119.936 252.272 119.352 252.584 118.6 252.856C117.848 253.112 117.072 253.24 116.272 253.24Z" fill="#484848"/>
<path d="M92.312 236.176C92.536 236.176 92.768 236.24 93.008 236.368C93.264 236.48 93.456 236.632 93.584 236.824L99.416 245.8L98.216 245.752L104.192 236.824C104.496 236.392 104.888 236.176 105.368 236.176C105.752 236.176 106.096 236.312 106.4 236.584C106.704 236.856 106.856 237.208 106.856 237.64V251.536C106.856 251.952 106.72 252.304 106.448 252.592C106.176 252.864 105.816 253 105.368 253C104.92 253 104.552 252.864 104.264 252.592C103.992 252.304 103.856 251.952 103.856 251.536V240.232L104.792 240.448L99.896 247.912C99.752 248.088 99.568 248.24 99.344 248.368C99.136 248.496 98.92 248.552 98.696 248.536C98.488 248.552 98.2721 248.496 98.048 248.368C97.8401 248.24 97.6641 248.088 97.5201 247.912L92.9361 240.664L93.5601 239.392V251.536C93.5601 251.952 93.432 252.304 93.176 252.592C92.92 252.864 92.584 253 92.168 253C91.768 253 91.4401 252.864 91.1841 252.592C90.9281 252.304 90.8 251.952 90.8 251.536V237.64C90.8 237.24 90.944 236.896 91.232 236.608C91.536 236.32 91.896 236.176 92.312 236.176Z" fill="#484848"/>
<path d="M378.399 238.4H384.087C384.471 238.4 384.791 238.528 385.047 238.784C385.303 239.04 385.431 239.36 385.431 239.744C385.431 240.112 385.303 240.424 385.047 240.68C384.791 240.92 384.471 241.04 384.087 241.04H378.399C378.015 241.04 377.695 240.912 377.439 240.656C377.183 240.4 377.055 240.08 377.055 239.696C377.055 239.328 377.183 239.024 377.439 238.784C377.695 238.528 378.015 238.4 378.399 238.4ZM380.967 235.4C381.383 235.4 381.719 235.544 381.975 235.832C382.247 236.104 382.383 236.448 382.383 236.864V247.544C382.383 247.768 382.423 247.952 382.503 248.096C382.599 248.24 382.719 248.344 382.863 248.408C383.023 248.472 383.191 248.504 383.367 248.504C383.559 248.504 383.735 248.472 383.895 248.408C384.055 248.328 384.239 248.288 384.447 248.288C384.671 248.288 384.871 248.392 385.047 248.6C385.239 248.808 385.335 249.096 385.335 249.464C385.335 249.912 385.087 250.28 384.591 250.568C384.111 250.856 383.591 251 383.031 251C382.695 251 382.319 250.976 381.903 250.928C381.503 250.864 381.119 250.728 380.751 250.52C380.399 250.296 380.103 249.96 379.863 249.512C379.623 249.064 379.503 248.448 379.503 247.664V236.864C379.503 236.448 379.639 236.104 379.911 235.832C380.199 235.544 380.551 235.4 380.967 235.4Z" fill="#484848"/>
<path d="M365.933 249.008C365.773 248.784 365.701 248.496 365.717 248.144C365.733 247.792 365.941 247.488 366.341 247.232C366.597 247.072 366.869 247.008 367.157 247.04C367.445 247.056 367.725 247.2 367.997 247.472C368.461 247.936 368.949 248.296 369.461 248.552C369.973 248.808 370.613 248.936 371.381 248.936C371.621 248.92 371.885 248.888 372.173 248.84C372.461 248.776 372.709 248.648 372.917 248.456C373.141 248.248 373.253 247.936 373.253 247.52C373.253 247.168 373.133 246.888 372.893 246.68C372.653 246.472 372.333 246.296 371.933 246.152C371.549 246.008 371.117 245.872 370.637 245.744C370.141 245.6 369.629 245.44 369.101 245.264C368.589 245.088 368.117 244.864 367.685 244.592C367.253 244.304 366.901 243.928 366.629 243.464C366.357 243 366.221 242.416 366.221 241.712C366.221 240.912 366.445 240.232 366.893 239.672C367.341 239.112 367.917 238.68 368.621 238.376C369.341 238.072 370.093 237.92 370.877 237.92C371.373 237.92 371.893 237.984 372.437 238.112C372.981 238.224 373.501 238.416 373.997 238.688C374.493 238.944 374.909 239.288 375.245 239.72C375.421 239.96 375.525 240.248 375.557 240.584C375.589 240.92 375.437 241.224 375.101 241.496C374.861 241.688 374.581 241.776 374.261 241.76C373.941 241.728 373.677 241.616 373.469 241.424C373.197 241.072 372.829 240.792 372.365 240.584C371.917 240.376 371.397 240.272 370.805 240.272C370.565 240.272 370.301 240.304 370.013 240.368C369.741 240.416 369.501 240.536 369.293 240.728C369.085 240.904 368.981 241.192 368.981 241.592C368.981 241.96 369.101 242.256 369.341 242.48C369.581 242.688 369.901 242.864 370.301 243.008C370.717 243.136 371.157 243.264 371.621 243.392C372.101 243.52 372.589 243.672 373.085 243.848C373.581 244.024 374.037 244.256 374.453 244.544C374.869 244.832 375.205 245.208 375.461 245.672C375.717 246.12 375.845 246.696 375.845 247.4C375.845 248.216 375.605 248.912 375.125 249.488C374.645 250.064 374.045 250.504 373.325 250.808C372.605 251.096 371.869 251.24 371.117 251.24C370.173 251.24 369.229 251.08 368.285 250.76C367.341 250.424 366.557 249.84 365.933 249.008Z" fill="#484848"/>
<path d="M362.119 237.92C362.535 237.92 362.879 238.056 363.151 238.328C363.423 238.6 363.559 238.952 363.559 239.384V249.536C363.559 249.952 363.423 250.304 363.151 250.592C362.879 250.864 362.535 251 362.119 251C361.703 251 361.359 250.864 361.087 250.592C360.815 250.304 360.679 249.952 360.679 249.536V248.36L361.207 248.576C361.207 248.784 361.095 249.04 360.871 249.344C360.647 249.632 360.343 249.92 359.959 250.208C359.575 250.496 359.119 250.744 358.591 250.952C358.079 251.144 357.519 251.24 356.911 251.24C355.807 251.24 354.807 250.96 353.911 250.4C353.015 249.824 352.303 249.04 351.775 248.048C351.263 247.04 351.007 245.888 351.007 244.592C351.007 243.28 351.263 242.128 351.775 241.136C352.303 240.128 353.007 239.344 353.887 238.784C354.767 238.208 355.743 237.92 356.815 237.92C357.503 237.92 358.135 238.024 358.711 238.232C359.287 238.44 359.783 238.704 360.199 239.024C360.631 239.344 360.959 239.672 361.183 240.008C361.423 240.328 361.543 240.6 361.543 240.824L360.679 241.136V239.384C360.679 238.968 360.815 238.624 361.087 238.352C361.359 238.064 361.703 237.92 362.119 237.92ZM357.271 248.6C357.975 248.6 358.591 248.424 359.119 248.072C359.647 247.72 360.055 247.24 360.343 246.632C360.647 246.024 360.799 245.344 360.799 244.592C360.799 243.824 360.647 243.136 360.343 242.528C360.055 241.92 359.647 241.44 359.119 241.088C358.591 240.736 357.975 240.56 357.271 240.56C356.583 240.56 355.975 240.736 355.447 241.088C354.919 241.44 354.503 241.92 354.199 242.528C353.911 243.136 353.767 243.824 353.767 244.592C353.767 245.344 353.911 246.024 354.199 246.632C354.503 247.24 354.919 247.72 355.447 248.072C355.975 248.424 356.583 248.6 357.271 248.6Z" fill="#484848"/>
<path d="M348.56 235.016C348.976 235.224 349.216 235.552 349.28 236C349.36 236.448 349.248 236.856 348.944 237.224C348.736 237.512 348.464 237.672 348.128 237.704C347.808 237.736 347.48 237.672 347.144 237.512C346.76 237.336 346.352 237.2 345.92 237.104C345.504 237.008 345.064 236.96 344.6 236.96C343.736 236.96 342.96 237.096 342.272 237.368C341.6 237.64 341.024 238.032 340.544 238.544C340.064 239.04 339.696 239.632 339.44 240.32C339.2 241.008 339.08 241.768 339.08 242.6C339.08 243.576 339.216 244.424 339.488 245.144C339.776 245.864 340.168 246.464 340.664 246.944C341.16 247.424 341.744 247.784 342.416 248.024C343.088 248.248 343.816 248.36 344.6 248.36C345.032 248.36 345.464 248.32 345.896 248.24C346.328 248.16 346.744 248.016 347.144 247.808C347.48 247.648 347.808 247.592 348.128 247.64C348.464 247.688 348.744 247.856 348.968 248.144C349.288 248.544 349.4 248.96 349.304 249.392C349.224 249.808 348.984 250.112 348.584 250.304C348.168 250.512 347.736 250.688 347.288 250.832C346.856 250.96 346.416 251.056 345.968 251.12C345.52 251.2 345.064 251.24 344.6 251.24C343.448 251.24 342.352 251.056 341.312 250.688C340.288 250.32 339.368 249.776 338.552 249.056C337.752 248.336 337.12 247.44 336.656 246.368C336.192 245.28 335.96 244.024 335.96 242.6C335.96 241.368 336.168 240.232 336.584 239.192C337.016 238.152 337.616 237.256 338.384 236.504C339.168 235.736 340.088 235.144 341.144 234.728C342.2 234.296 343.352 234.08 344.6 234.08C345.304 234.08 345.992 234.16 346.664 234.32C347.336 234.48 347.968 234.712 348.56 235.016Z" fill="#484848"/>
<path d="M652.922 249.536C652.922 249.952 652.778 250.304 652.49 250.592C652.218 250.864 651.874 251 651.458 251C651.058 251 650.722 250.864 650.45 250.592C650.178 250.304 650.042 249.952 650.042 249.536V234.704C650.042 234.288 650.178 233.944 650.45 233.672C650.738 233.384 651.09 233.24 651.506 233.24C651.922 233.24 652.258 233.384 652.514 233.672C652.786 233.944 652.922 234.288 652.922 234.704V249.536Z" fill="#484848"/>
<path d="M645.244 237.92C645.66 237.92 646.004 238.056 646.276 238.328C646.548 238.6 646.684 238.952 646.684 239.384V249.536C646.684 249.952 646.548 250.304 646.276 250.592C646.004 250.864 645.66 251 645.244 251C644.828 251 644.484 250.864 644.212 250.592C643.94 250.304 643.804 249.952 643.804 249.536V248.36L644.332 248.576C644.332 248.784 644.22 249.04 643.996 249.344C643.772 249.632 643.468 249.92 643.084 250.208C642.7 250.496 642.244 250.744 641.716 250.952C641.204 251.144 640.644 251.24 640.036 251.24C638.932 251.24 637.932 250.96 637.036 250.4C636.14 249.824 635.428 249.04 634.9 248.048C634.388 247.04 634.132 245.888 634.132 244.592C634.132 243.28 634.388 242.128 634.9 241.136C635.428 240.128 636.132 239.344 637.012 238.784C637.892 238.208 638.868 237.92 639.94 237.92C640.628 237.92 641.26 238.024 641.836 238.232C642.412 238.44 642.908 238.704 643.324 239.024C643.756 239.344 644.084 239.672 644.308 240.008C644.548 240.328 644.668 240.6 644.668 240.824L643.804 241.136V239.384C643.804 238.968 643.94 238.624 644.212 238.352C644.484 238.064 644.828 237.92 645.244 237.92ZM640.396 248.6C641.1 248.6 641.716 248.424 642.244 248.072C642.772 247.72 643.18 247.24 643.468 246.632C643.772 246.024 643.924 245.344 643.924 244.592C643.924 243.824 643.772 243.136 643.468 242.528C643.18 241.92 642.772 241.44 642.244 241.088C641.716 240.736 641.1 240.56 640.396 240.56C639.708 240.56 639.1 240.736 638.572 241.088C638.044 241.44 637.628 241.92 637.324 242.528C637.036 243.136 636.892 243.824 636.892 244.592C636.892 245.344 637.036 246.024 637.324 246.632C637.628 247.24 638.044 247.72 638.572 248.072C639.1 248.424 639.708 248.6 640.396 248.6Z" fill="#484848"/>
<path d="M626.53 251.24C625.17 251.24 623.986 250.96 622.978 250.4C621.986 249.824 621.218 249.048 620.674 248.072C620.146 247.096 619.882 245.992 619.882 244.76C619.882 243.32 620.17 242.096 620.746 241.088C621.338 240.064 622.106 239.28 623.05 238.736C623.994 238.192 624.994 237.92 626.05 237.92C626.866 237.92 627.634 238.088 628.354 238.424C629.09 238.76 629.738 239.224 630.298 239.816C630.858 240.392 631.298 241.064 631.618 241.832C631.954 242.6 632.122 243.416 632.122 244.28C632.106 244.664 631.954 244.976 631.666 245.216C631.378 245.456 631.042 245.576 630.658 245.576H621.49L620.77 243.176H629.578L629.05 243.656V243.008C629.018 242.544 628.85 242.128 628.546 241.76C628.258 241.392 627.89 241.104 627.442 240.896C627.01 240.672 626.546 240.56 626.05 240.56C625.57 240.56 625.122 240.624 624.706 240.752C624.29 240.88 623.93 241.096 623.626 241.4C623.322 241.704 623.082 242.112 622.906 242.624C622.73 243.136 622.642 243.784 622.642 244.568C622.642 245.432 622.818 246.168 623.17 246.776C623.538 247.368 624.002 247.824 624.562 248.144C625.138 248.448 625.746 248.6 626.386 248.6C626.978 248.6 627.45 248.552 627.802 248.456C628.154 248.36 628.434 248.248 628.642 248.12C628.866 247.976 629.066 247.856 629.242 247.76C629.53 247.616 629.802 247.544 630.058 247.544C630.41 247.544 630.698 247.664 630.922 247.904C631.162 248.144 631.282 248.424 631.282 248.744C631.282 249.176 631.058 249.568 630.61 249.92C630.194 250.272 629.61 250.584 628.858 250.856C628.106 251.112 627.33 251.24 626.53 251.24Z" fill="#484848"/>
<path d="M613.049 237.92C614.233 237.92 615.129 238.168 615.737 238.664C616.361 239.16 616.785 239.824 617.009 240.656C617.249 241.472 617.369 242.384 617.369 243.392V249.536C617.369 249.952 617.233 250.304 616.961 250.592C616.689 250.864 616.345 251 615.929 251C615.513 251 615.169 250.864 614.897 250.592C614.625 250.304 614.489 249.952 614.489 249.536V243.392C614.489 242.864 614.417 242.392 614.273 241.976C614.145 241.544 613.905 241.2 613.553 240.944C613.201 240.688 612.697 240.56 612.041 240.56C611.401 240.56 610.857 240.688 610.409 240.944C609.977 241.2 609.641 241.544 609.401 241.976C609.177 242.392 609.065 242.864 609.065 243.392V249.536C609.065 249.952 608.929 250.304 608.657 250.592C608.385 250.864 608.041 251 607.625 251C607.209 251 606.865 250.864 606.593 250.592C606.321 250.304 606.185 249.952 606.185 249.536V239.624C606.185 239.208 606.321 238.864 606.593 238.592C606.865 238.304 607.209 238.16 607.625 238.16C608.041 238.16 608.385 238.304 608.657 238.592C608.929 238.864 609.065 239.208 609.065 239.624V240.656L608.705 240.584C608.849 240.312 609.057 240.024 609.329 239.72C609.601 239.4 609.921 239.104 610.289 238.832C610.657 238.56 611.073 238.344 611.537 238.184C612.001 238.008 612.505 237.92 613.049 237.92Z" fill="#484848"/>
<path d="M598.752 237.92C599.936 237.92 600.832 238.168 601.44 238.664C602.064 239.16 602.488 239.824 602.712 240.656C602.952 241.472 603.072 242.384 603.072 243.392V249.536C603.072 249.952 602.936 250.304 602.664 250.592C602.392 250.864 602.048 251 601.632 251C601.216 251 600.872 250.864 600.6 250.592C600.328 250.304 600.192 249.952 600.192 249.536V243.392C600.192 242.864 600.12 242.392 599.976 241.976C599.848 241.544 599.608 241.2 599.256 240.944C598.904 240.688 598.4 240.56 597.744 240.56C597.104 240.56 596.56 240.688 596.112 240.944C595.68 241.2 595.344 241.544 595.104 241.976C594.88 242.392 594.768 242.864 594.768 243.392V249.536C594.768 249.952 594.632 250.304 594.36 250.592C594.088 250.864 593.744 251 593.328 251C592.912 251 592.568 250.864 592.296 250.592C592.024 250.304 591.888 249.952 591.888 249.536V239.624C591.888 239.208 592.024 238.864 592.296 238.592C592.568 238.304 592.912 238.16 593.328 238.16C593.744 238.16 594.088 238.304 594.36 238.592C594.632 238.864 594.768 239.208 594.768 239.624V240.656L594.408 240.584C594.552 240.312 594.76 240.024 595.032 239.72C595.304 239.4 595.624 239.104 595.992 238.832C596.36 238.56 596.776 238.344 597.24 238.184C597.704 238.008 598.208 237.92 598.752 237.92Z" fill="#484848"/>
<path d="M582.968 237.968L577.784 250.16C577.672 250.464 577.496 250.704 577.256 250.88C577.032 251.04 576.784 251.12 576.512 251.12C576.08 251.12 575.76 251 575.552 250.76C575.344 250.52 575.24 250.224 575.24 249.872C575.24 249.728 575.264 249.576 575.312 249.416L581.288 235.064C581.416 234.744 581.608 234.496 581.864 234.32C582.136 234.144 582.424 234.072 582.728 234.104C583.016 234.104 583.28 234.192 583.52 234.368C583.776 234.528 583.96 234.76 584.072 235.064L589.976 249.128C590.056 249.336 590.096 249.528 590.096 249.704C590.096 250.136 589.952 250.48 589.664 250.736C589.392 250.992 589.088 251.12 588.752 251.12C588.464 251.12 588.2 251.032 587.96 250.856C587.736 250.68 587.56 250.44 587.432 250.136L582.272 238.112L582.968 237.968ZM578.528 247.232L579.848 244.472H586.328L586.784 247.232H578.528Z" fill="#484848"/>
<path d="M181.384 117.733C181.427 118.284 181.016 118.765 180.465 118.807L171.491 119.497C170.94 119.539 170.46 119.128 170.418 118.577L169.727 109.604C169.684 109.053 170.097 108.572 170.647 108.53C171.198 108.487 171.679 108.9 171.721 109.45L172.227 116.016L185.655 100.349C186.014 99.9299 186.646 99.8811 187.065 100.24C187.485 100.6 187.533 101.232 187.174 101.651L173.745 117.318L180.311 116.813C180.862 116.771 181.342 117.183 181.384 117.733Z" fill="#484848"/>
<path d="M134.768 79.1909C135.033 79.6749 134.856 80.2826 134.372 80.5483L126.481 84.8768C125.997 85.1424 125.389 84.965 125.123 84.4808L120.795 76.5898C120.529 76.1058 120.706 75.498 121.19 75.2324C121.674 74.9668 122.283 75.1441 122.548 75.6283L125.716 81.4029L131.454 61.7205C131.608 61.1903 132.163 60.886 132.694 61.0405C133.224 61.1951 133.529 61.7497 133.374 62.2798L127.636 81.9622L133.41 78.7949C133.894 78.5293 134.502 78.7066 134.768 79.1909Z" fill="#484848"/>
<path d="M76.8103 104.622C76.7277 105.168 76.2185 105.543 75.6727 105.461L66.773 104.117C66.2271 104.034 65.852 103.524 65.9345 102.978C66.017 102.432 66.526 102.057 67.0721 102.139L73.5851 103.122L62.132 87.5935C61.8042 87.149 61.8988 86.5231 62.3433 86.1953C62.7878 85.8675 63.4137 85.9621 63.7415 86.4066L75.1939 101.935L76.1782 95.4239C76.2608 94.8779 76.7698 94.5022 77.3158 94.5847C77.8619 94.6672 78.2382 95.1769 78.1557 95.7229L76.8103 104.622Z" fill="#484848"/>
<path d="M679 277V281H37V277H679ZM712 244V37C712 18.7746 697.225 4 679 4H37C18.7746 4 4 18.7746 4 37V244C4 262.225 18.7746 277 37 277V281L36.0449 280.988C16.0518 280.482 0 264.115 0 244V37C3.42485e-06 16.8848 16.0518 0.518292 36.0449 0.0117188L37 0H679C699.435 0 716 16.5655 716 37V244L715.988 244.955C715.482 264.948 699.115 281 679 281V277C697.225 277 712 262.225 712 244Z" fill="#B5B5B5"/>
</svg>
